<?xml version="1.0" encoding="utf-8"?>
<!-- Generator: Adobe Illustrator 16.0.4, SVG Export Plug-In . SVG Version: 6.00 Build 0)  -->
<!DOCTYPE svg PUBLIC "-//W3C//DTD SVG 1.1//EN" "http://www.w3.org/Graphics/SVG/1.1/DTD/svg11.dtd">
<svg version="1.1" id="Ebene_2" xmlns="http://www.w3.org/2000/svg" xmlns:xlink="http://www.w3.org/1999/xlink" x="0px" y="0px"
	 width="743px" height="685.666px" viewBox="0 0 743 685.666" enable-background="new 0 0 743 685.666" xml:space="preserve">
<g>
	<g>
		<path fill="#BBBCBC" d="M325.626,470.111c-11.564-0.381-13.918,9.616-16.963,11.086c-3.045,1.469-2.472,1.27-2.472,1.27
			l0.104-0.633c0,0-0.373-0.529-0.711-0.205c-0.302,0.258-1.312,1.979-3.3,3.783c-1.906,1.742-3.521,3.863-3.521,3.863
			s-3.866,8.604-4.358,14.26c-0.433,5.014,7.819,9.227,7.819,9.227l14.749,3.152c0,0,12.908,5.059,16.649,6.217
			c0.514,0.158,42.573,6.604,42.573,6.604l9.096,0.252c0,0,0.985,0.182,0.968-0.365c-0.029-0.729-0.199-0.529-0.029-0.729
			c0.834-0.931,2.067-2.341,2.556-3.442c0.896-2.043,0.59-6.041-1.881-7.672c-1.738-1.146-4.535-2.242-5.453-2.449
			c-1.972-0.461-7.041-1.685-7.041-1.685l-3.655-2.347l-16.801-10.288l-0.685-1.53l-1.337-0.666l-1.123-1.222l-0.191-1.535
			l-1.885-0.713c0,0-1.225-3.603-3.068-7.056c-0.778-0.422-1.714,1.125-1.714,1.125c-1.722,0.045-2.935-4.172-5.89-10.951
			c-1.67-3.821-5.499-5.811-8.044-6.657C328.592,470.33,327.073,470.156,325.626,470.111"/>
	</g>
	<g>
		<path fill="#BBBCBC" d="M316.17,495.482c2.818,1.311,6.918,3.309,8.668,3.754c5.393,1.359,6.738-1.061,10.335-5.152
			c2.998-3.41,11.668-20.258,20.521-30.02c0,0,12.498-14.289,22.266-26.135c9.771-11.844,16.772-21.32,16.772-21.32
			c12.335-16.468,16.642-26.172,21.399-33.172c1.969-2.9,10.382-10.311,13.806-15.029c0.863-1.191,4.424-5.473,5.112-6.701
			c1.564-2.809,2.678-6.496,2.992-7.498c3.728-11.896-3.039-18.447-8.646-22.848c-5.779-4.533-26.021-10.545-28.244,0.797
			c-3.246,16.561-18.867,23.979-25.086,27.443c-5.028,2.805-9.3,4.523-13.319,8.945c-4.016,4.424-14.104,16.449-15.543,22.674
			c-1.444,6.229-6.102,21.346-6.102,21.346l-6.982,23.471l-6.208,15.816c0,0-5.947,11.824-7.151,13.359
			c-1.204,1.539-1.438,2.564-12.97,15.541C305.12,483.76,312.25,493.662,316.17,495.482"/>
	</g>
	<g>
		<path fill="#BBBCBC" d="M418.336,321.699c-8.077-6.439-16.185-12.916-20.204-15.887c-4.021-2.975-25.692-13.1-45.979-21.156
			l-0.026-1.914l-4.842-0.729l-4.395-3.25l-3.224-0.096l-5.781-0.506c-6.551-2.002-15.379-5.906-22.129-7.361
			c-26.515-5.713-27.747-4.617-34.198-3.981c-20.443,2.006-30.946,11.422-39.213,25.672c-7.069,12.176-4.143,20.562-3.835,23.664
			c0.4,4.125,1.113,19.946,34.1,28.521c6.666,1.72,26.939,10.025,36.513,11.432l0.632,0.729l4.896,2.703l4.023,0.527l2.423,1.186
			l2.925-0.012l-0.175-0.938c12.424,1.912,35.796,5.512,44.911,6.879c12.677,1.914,14.107,2.498,24.941,2.451
			c8.709-0.043,20.631-2.441,25.93-2.359c11.729,0.172,18.186-10.021,20.072-15.453c1.395-4.018,1.557-7.113,1.559-8.434
			c0.003-5.35-2.312-10.732-9.065-15.379C425.131,325.904,420.44,323.377,418.336,321.699"/>
	</g>
	<g>
		<path fill="#484847" d="M500.513,346.598l2.584,5.09l-17.695,6.225l-0.595-6.771l7.519-2.232L500.513,346.598z M482.923,339.9
			l1.393,4.08c-1.182,0.896-2.468,1.428-2.045,3.055c0.443,1.701,1.811,1.41,3.65,1.656l0.237,0.691l7.913-2.219v0.027l3.872-1.113
			c0,0,0.917-0.853,1.591-1.262c0.671-0.41,2.214-0.801,2.214-0.801l20.25-3.775c0,0,1.857-0.295,2.153,0
			c0.303,0.301,0.344,0.557,0.669,1.34c0.33,0.785,4.358,0.373,4.878-0.109c0.164-0.148,0.394-1.875,0.627-4.156
			c13.979,0.711,29.857,2.424,33.004,4.059c6.229,3.908,9.358,5.908,8.283,19.686c-0.316,2.312-4.334,12.076-17.943,17.258
			c-7.41,2.82-25.14,4.379-31.35,4.736l0.768,13.084c2.483-0.146,24.613-1.533,35.243-5.58c17.766-6.76,25.473-20.521,26.313-28.129
			l0.021-0.197c0.447-5.633,0.236-10.158-0.495-13.889c0.33-0.037,0.857-0.141,1.013-0.479c0.229-0.504,0.447-0.994,0.447-0.994
			s2.68-0.893,4.91-2.186c1.056-0.604,2.378-1.441,3.49-2.158c1.768-0.221,4.982-0.045,6.584,0.271
			c1.732,0.35,2.557,2.264,2.598,2.363c1.15,2.973-0.464,15.082-0.464,16.35c0,1.387-0.694,8.955,0.991,12.01
			c2.26,3.758,10.362,9.945,10.856,9.896c1.315-0.119,1.575-1.756,1.522-2.455c-0.016-0.148-0.203-0.404-0.287-0.479
			c-1.12-1.068-4.086-4.959-4.368-5.379c-0.303-0.447-1.817-1.215-1.274-9.824c0.306-4.762,1.044-9.275,1.193-10.916
			c0.031-0.355,0.422-7.346-0.102-10.322c-0.521-2.979-2.233-5.979-2.233-7.445c0-1.465,0.225-3.553,0.449-4.064
			c1.087-1.67,3.821-2.723,4.137-4.764c0.024-0.09,0.047-0.186,0.058-0.275c0.146-1.363,0.494-2.062-0.919-6.977
			c-1.415-4.912-3.323-8.83-4.348-9.428c-0.816-0.477-2.255-1.387-5.576,0.002c-3.327,1.389-4.218,4.068-4.218,4.068
			s-1.196,4.467-3.725,6.85c-3.673,3.422-9.23,3.82-9.23,3.82s-8.979-0.297-11.215-0.35c-2.231-0.051-9.33,1.094-9.33,1.094
			s-1.832,0.002-1.451,1.244c-3.682-0.869-9.235-1.732-17.998-2.533c-5.588-0.508-10.838-0.84-14.104-1.018l0.102-0.227
			c0,0,0.25-1.688,0.053-2.334c-0.192-0.645-0.723-0.721-0.723-0.721s-2.602,0.275-4.786,0.622
			c-2.182,0.349-3.771,0.694-4.443,1.239c-0.669,0.543-1.189,2.232-1.189,2.232l-24.869,5.537l-1.733-0.689l-0.299-1.219
			c0,0-2.581,0.123-7.244,1.512c-4.665,1.395-5.881,2.756-5.881,2.756l0.766,2.248c-1.167,0.881-2.418,1.418-1.998,3.023
			C479.768,339.934,481.106,339.668,482.923,339.9"/>
	</g>
	<g>
		<path fill="#484847" d="M298.492,412.373c-9.17-31.199-18.614-61.1-19.041-61.359c-0.167-0.102-2.328-11.979-2.54-12.023
			l1.176-1.412c2.263-0.342,3.842-0.625,4.236-0.803c1.544-0.676,10.588-5.873,11.613-6.461l0.087-0.057
			c0.661-0.443,2.684-1.686,4.073-2.088c1.682-0.494,6.119-0.867,6.751-0.822c-0.015,0-0.089-0.014-0.188-0.043
			c0.567,0.137,2.567,0.197,14.339,0.105c0.803-0.004,1.446-0.658,1.438-1.461c0-0.006-0.003-0.008-0.003-0.015
			c0.837,0.144,1.481,0.261,1.428,0.269c-0.145,0.027,1.837,0.182,2.51-0.355c0.674-0.533,0.449-1.379,0.279-1.791
			c-0.173-0.404-1.467-1.92-1.467-1.92s-3.254-2.488-7.755-3.49c-4.499-1.004-9.863-1.01-9.863-1.01l-26.428-0.457
			c-6.698-0.012-15.759,0.221-19.582,0.214c-8.468-0.009-30.812-0.704-38.341-0.276c-3.174,0.182-8.036,2.332-8.036,2.332
			s-3.812,2.791-3.893,4.428c-0.047,0.951,1.935,1.451,3.433,1.99c1.076,0.389,2.469,0.932,2.469,0.932l3.371-0.155
			c0,0,1.127,0.694,3.165,1.653c2.034,0.967,6.493,1.018,6.493,1.018l6.639,2.969c0,0,2.629,1.258,5.242,1.564
			c0.035,0.006,0.068,0,0.104,0.006l4.216,3.98c0.208,0.209,2.07,2.041,3.988,2.471c1.661,0.373,4.128,0.508,4.229,0.51l0.125,0.008
			l0.121-0.016c0.582-0.068,1.227-0.146,1.91-0.227c0.026,0.271,15.229,14.936,15.355,15.205
			c0.285,0.598,9.998,32.623,18.202,59.738L298.492,412.373z M275.774,332.594l-8.256,0.207l-12.974,2.701l0.19,2.232
			c-0.01,0.014-1.62,0.17-2.065,0.178c-0.492-0.029-2.395-0.158-3.627-0.438c-0.826-0.188-2.018-1.133-2.602-1.717l-2.54-2.398
			c0.781-0.266,1.295-0.531,1.295-0.531s11.507-3.66,13.919-4.311c2.397-0.643,7.897-1.562,13.542-2.711
			c3.98-0.811,19.584-0.559,19.584-0.559l5.515,0.021c-0.188,0.043-0.356,0.078-0.475,0.115c-1.982,0.578-4.458,2.193-4.833,2.439
			c-3.975,2.287-10.233,5.834-11.239,6.275c-0.416,0.139-2.044,0.4-4.393,0.736L275.774,332.594z"/>
	</g>
	<g>
		<path fill="#484847" d="M166.151,446.119c14.453,0,28.463,2.822,41.635,8.395c6.337,2.682,12.447,5.996,18.164,9.859
			c5.671,3.832,11.005,8.229,15.852,13.08c4.85,4.846,9.251,10.18,13.08,15.852c3.861,5.719,7.18,11.83,9.857,18.162
			c5.574,13.174,8.399,27.184,8.399,41.636c0,14.457-2.825,28.468-8.399,41.642c-2.679,6.33-5.996,12.438-9.857,18.158
			c-3.829,5.674-8.23,11.004-13.08,15.854c-4.847,4.846-10.181,9.248-15.852,13.078c-5.717,3.863-11.827,7.182-18.164,9.859
			c-13.172,5.571-27.182,8.396-41.635,8.396c-14.452,0-28.463-2.823-41.635-8.396c-6.335-2.679-12.446-5.996-18.165-9.859
			c-5.671-3.83-11.003-8.232-15.85-13.078c-4.85-4.852-9.25-10.182-13.08-15.854c-3.862-5.721-7.181-11.828-9.858-18.158
			c-5.573-13.174-8.399-27.185-8.399-41.642c0-14.452,2.826-28.462,8.399-41.636c2.679-6.332,5.996-12.443,9.858-18.162
			c3.83-5.672,8.229-11.006,13.08-15.852c4.847-4.851,10.179-9.248,15.85-13.08c5.719-3.863,11.83-7.18,18.165-9.859
			C137.688,448.941,151.7,446.119,166.151,446.119 M166.151,420.543c-73.212,0-132.561,59.354-132.561,132.559
			c0,73.215,59.349,132.564,132.561,132.564c73.211,0,132.56-59.352,132.56-132.564
			C298.708,479.895,239.363,420.543,166.151,420.543"/>
	</g>
	<g>
		<path fill="#484847" d="M576.848,446.119c14.454,0,28.465,2.822,41.635,8.395c6.336,2.682,12.447,5.996,18.165,9.859
			c5.672,3.832,11.003,8.229,15.852,13.08c4.85,4.846,9.25,10.18,13.08,15.852c3.861,5.719,7.181,11.83,9.857,18.162
			c5.574,13.174,8.399,27.184,8.399,41.636c0,14.457-2.825,28.468-8.399,41.642c-2.679,6.33-5.996,12.438-9.857,18.158
			c-3.83,5.674-8.23,11.004-13.08,15.854c-4.849,4.846-10.18,9.248-15.852,13.078c-5.718,3.863-11.829,7.182-18.165,9.859
			c-13.17,5.571-27.181,8.396-41.635,8.396c-14.452,0-28.463-2.823-41.635-8.396c-6.336-2.679-12.446-5.996-18.163-9.859
			c-5.673-3.83-11.005-8.232-15.853-13.078c-4.85-4.852-9.25-10.182-13.079-15.854c-3.862-5.721-7.181-11.828-9.858-18.158
			c-5.573-13.174-8.398-27.185-8.398-41.642c0-14.452,2.825-28.462,8.398-41.636c2.68-6.332,5.996-12.443,9.858-18.162
			c3.829-5.672,8.229-11.006,13.079-15.852c4.848-4.851,10.18-9.248,15.853-13.08c5.717-3.863,11.827-7.18,18.163-9.859
			C548.385,448.941,562.396,446.119,576.848,446.119 M576.848,420.543c-73.211,0-132.561,59.354-132.561,132.559
			c0,73.215,59.35,132.564,132.561,132.564c73.213,0,132.562-59.352,132.562-132.564
			C709.409,479.895,650.061,420.543,576.848,420.543"/>
	</g>
	<g>
		<path fill="#484847" d="M339.765,544.297c-22.785,0-41.253,18.467-41.253,41.254c0,22.783,18.468,41.254,41.253,41.254
			s41.254-18.471,41.254-41.254C381.019,562.764,362.55,544.297,339.765,544.297 M311.09,576.658c0.162-1,1.453-4.094,3.705-7.406
			c2.248-3.307,7.089-6.9,7.681-7.062c0.596-0.16,1.886-0.419,3.16,0.133c1.271,0.553,2.024,1.653,2.366,2.256
			c0.202,0.353,1.005,3.354,1.641,5.805l0.773,5.759c-0.158,0.998-0.516,2.144-1.277,3.146c-1.846,2.424-5.045,2.973-5.045,2.973
			s-9.105,0.289-9.651,0.266c-0.538-0.029-2.455-0.453-2.947-1.562C311.006,579.85,310.849,578.135,311.09,576.658 M331.091,599.014
			c0,0-2.539,8.75-2.73,9.264c-0.192,0.502-1.189,2.193-2.396,2.316c-1.204,0.121-2.884-0.256-4.214-0.941
			c-0.899-0.461-3.444-2.65-5.896-5.812c-2.452-3.162-4.375-8.875-4.343-9.488c0.028-0.613,0.181-1.922,1.101-2.963
			c0.916-1.039,2.199-1.416,2.878-1.557c0.395-0.082,3.501,0.084,6.027,0.236l5.714,1.043c0.9,0.461,1.878,1.146,2.598,2.188
			C331.561,595.799,331.091,599.014,331.091,599.014 M335.208,558.041c0.906-0.809,2.484-1.492,3.965-1.719
			c1-0.152,4.343,0.121,8.187,1.24c3.844,1.113,8.758,4.605,9.092,5.12c0.342,0.519,0.984,1.661,0.851,3.045
			c-0.13,1.38-0.945,2.438-1.411,2.948c-0.273,0.3-2.88,1.992-5.014,3.354l-5.236,2.516c-0.998,0.156-2.197,0.172-3.387-0.244
			c-2.875-1.006-4.385-3.881-4.385-3.881s-3.091-8.572-3.233-9.098C334.498,560.807,334.307,558.846,335.208,558.041
			 M358.62,605.994c-0.26,1.184-1.137,2.662-2.197,3.715c-0.721,0.713-3.585,2.457-7.352,3.812
			c-3.765,1.354-9.792,1.418-10.365,1.197c-0.576-0.217-1.774-0.768-2.476-1.963c-0.708-1.193-0.671-2.53-0.593-3.217
			c0.042-0.404,1.158-3.305,2.083-5.662l2.761-5.107c0.712-0.717,1.676-1.434,2.883-1.793c2.914-0.881,5.827,0.559,5.827,0.559
			s7.536,5.121,7.962,5.463C357.575,603.338,358.876,604.809,358.62,605.994 M366.482,595.148c-0.386,0.479-1.276,1.447-2.633,1.75
			c-1.354,0.303-2.61-0.146-3.242-0.436c-0.368-0.166-2.784-2.121-4.737-3.732l-4.01-4.197c-0.46-0.902-0.844-2.039-0.812-3.297
			c0.064-3.047,2.335-5.371,2.335-5.371s7.196-5.586,7.649-5.885c0.455-0.298,2.256-1.076,3.305-0.469
			c1.046,0.609,2.185,1.904,2.856,3.238c0.453,0.902,1.228,4.17,1.354,8.168C368.667,588.916,366.868,594.668,366.482,595.148"/>
	</g>
	<g>
		<path fill="#484847" d="M338.652,637.037l14.425-100.937c0.472-3.284-1.812-6.334-5.104-6.804
			c-3.288-0.473-6.336,1.812-6.804,5.104l-14.428,100.934c-0.469,3.287,1.815,6.334,5.104,6.803
			C335.137,642.609,338.184,640.324,338.652,637.037"/>
	</g>
	<g>
		<path fill="#484847" d="M335.019,531.816l25.002,3.573c2.375,0.338,4.577-1.312,4.915-3.688c0.34-2.375-1.312-4.576-3.684-4.916
			l-25.005-3.572c-2.376-0.338-4.579,1.312-4.918,3.688C330.992,529.275,332.641,531.477,335.019,531.816"/>
	</g>
	<g>
		<path fill="#484847" d="M317.717,644.768l25.002,3.569c2.374,0.34,4.577-1.311,4.915-3.684c0.34-2.375-1.312-4.58-3.685-4.916
			l-25.004-3.574c-2.377-0.34-4.579,1.312-4.918,3.687C313.688,642.225,315.339,644.43,317.717,644.768"/>
	</g>
	<g>
		<path fill="#484847" d="M583.862,555.102c-0.015-0.364-0.062-0.726-0.141-1.077c-0.093-0.436-0.227-0.865-0.373-1.283
			c-0.183-0.508-0.391-1.002-0.6-1.494l-5.484-13.029l-6.585-16.373h-0.003l-24.462-62.312
			c-5.229-13.326-9.983-25.443-12.966-33.021l-0.191-0.494c0.003-0.002,0-0.002-0.003-0.002l-0.043,0.023
			c-0.445-1.176-0.89-2.354-1.34-3.52c-0.05-0.122-0.1-0.245-0.146-0.365l1.526,3.859c-0.398-1.02-0.8-2.035-1.198-3.045
			c-0.122-0.303-0.246-0.61-0.367-0.92c-0.275-0.707-0.556-1.408-0.834-2.113c-0.062-0.158-0.126-0.318-0.188-0.477l0.074,0.195
			l-0.104-0.266c-0.046-0.109-0.088-0.223-0.133-0.334c-0.002-0.006-0.006-0.012-0.008-0.014c-0.13-0.326-0.26-0.654-0.394-0.978
			c-0.143-0.356-0.287-0.711-0.432-1.062c-0.006-0.021-0.011-0.035-0.021-0.055l-0.445-1.15l-1.368-4.539c0-0.02,0-0.041,0-0.057
			c-0.006-0.082-0.015-0.136-0.021-0.188v-0.059c-0.009-0.375-0.132-0.738-0.268-1.096c-0.146-0.378-0.307-0.738-0.463-1.104
			c-0.17-0.367-0.346-0.736-0.521-1.1c-0.234-0.494-0.479-0.992-0.725-1.482c-0.123-0.248-0.247-0.494-0.37-0.737
			c-0.124-0.248-0.247-0.491-0.37-0.737c-0.124-0.248-0.248-0.496-0.372-0.742l-0.371-0.738c-0.103-0.209-0.206-0.416-0.31-0.625
			c-0.112-0.227-0.368-0.338-0.609-0.264l-0.104,0.033l-0.034,0.008l-0.038,0.012l-0.34,0.105l-0.071,0.021l-0.008,0.002
			l-0.05,0.015l-0.033,0.015l-0.029,0.01l-0.176,0.054l-0.053,0.015l-0.065,0.02l-0.101,0.033l-0.043,0.012l-0.035,0.014
			l-0.033,0.012l-0.104,0.031l-0.142,0.045l-0.043,0.012l-0.074,0.021l-0.032,0.009l-0.126,0.039l-0.146,0.047l-0.025,0.008
			l-0.733-0.141l-0.158-0.123l0.568-0.173l0.362-0.11l0.064-0.021l0.488-0.147l0.326-0.099l0.094-0.028l0.787-0.23
			c0-0.002,0.003-0.002,0.003-0.002c0.011-0.004,0.022-0.008,0.034-0.014s0.024-0.011,0.033-0.025
			c0.024-0.014,0.04-0.039,0.059-0.062c0.013-0.025,0.021-0.054,0.022-0.082c0-0.027-0.003-0.058-0.01-0.08c0,0-0.002,0,0,0
			c0,0-0.286-0.711-0.309-0.771c0,0,0,0,0-0.004l0,0l-19.077-48.176l-0.003-0.008c0-0.058-0.003-0.097-0.038-0.107
			c-0.011-0.004-0.021-0.004-0.027,0.002c-0.013-0.02-0.025-0.034-0.043-0.057c-0.048-0.045-0.104-0.076-0.171-0.101
			c-0.029-0.015-0.073-0.024-0.122-0.024c-0.013-0.002-0.021-0.002-0.028-0.002c-0.049,0.002-0.093,0.014-0.139,0.026h-0.01
			c-0.003,0.003-0.003,0.003-0.003,0.003l0,0c0,0-0.142,0.047-0.411,0.146c-0.271,0.099-0.673,0.242-1.189,0.428l-0.495,0.18
			c-0.409,0.146-0.873,0.309-1.375,0.491l-0.637,0.229c-0.537,0.195-1.11,0.4-1.712,0.615c-0.01,0.004-0.021,0.006-0.023,0.01
			c-0.095,0.031-0.188,0.068-0.283,0.102l-0.09,0.029c-0.121,0.045-0.244,0.088-0.364,0.133l-0.855,0.311
			c-0.096,0.029-0.188,0.062-0.285,0.102c-0.13,0.045-0.256,0.09-0.385,0.143l-0.778,0.275c-0.264,0.094-0.521,0.189-0.778,0.281
			l-0.275,0.096c-0.168,0.062-0.334,0.121-0.5,0.182c-0.257,0.096-0.513,0.186-0.769,0.275l-0.016,0.006
			c-0.247,0.088-0.494,0.18-0.738,0.266l-0.027,0.01c-0.241,0.09-0.479,0.176-0.722,0.26c-0.248,0.086-0.496,0.18-0.743,0.267
			l-0.017,0.007c-0.118,0.043-0.236,0.088-0.354,0.127l-0.371,0.135c-0.119,0.043-0.246,0.09-0.369,0.133
			c-0.124,0.047-0.247,0.09-0.371,0.131c-0.145,0.059-0.29,0.107-0.438,0.16c-0.104,0.037-0.207,0.07-0.309,0.109l-1.102,0.396
			c-0.135,0.048-0.269,0.1-0.404,0.146c-0.124,0.043-0.25,0.09-0.383,0.135c-0.028,0.012-0.061,0.022-0.093,0.037
			c-0.03,0.012-0.062,0.021-0.096,0.033c-0.062,0.021-0.127,0.043-0.188,0.066l-0.089,0.033c-0.062,0.021-0.124,0.043-0.181,0.062
			c-0.072,0.023-0.14,0.051-0.206,0.07l-0.11,0.039c-0.101,0.037-0.198,0.074-0.293,0.107c-0.375,0.135-0.692,0.246-0.945,0.34
			c-0.197,0.07-0.355,0.129-0.479,0.172l-0.093,0.033c-0.123,0.041-0.186,0.062-0.189,0.065c-0.07,0.021-0.143,0.054-0.215,0.077
			c-0.072,0.029-0.149,0.057-0.225,0.082c-0.034,0.016-0.071,0.029-0.109,0.041c-0.038,0.018-0.074,0.029-0.108,0.043
			c-0.053,0.021-0.104,0.045-0.15,0.064l0,0c-0.011,0.004-0.02,0.006-0.024,0.01l-0.011,0.002c-0.012,0.004-0.021,0.006-0.028,0.013
			l0,0l-0.01,0.003c-1.191,0.445-2.428,0.902-3.656,1.311c-1.071,0.355-2.246,0.703-3.59,1.07c-1.771,0.477-3.559,0.912-5.539,1.393
			l-156.974,37.943l-3.417,0.824c0,0.002,0,0.002-0.003,0.002c-0.002,0-0.007,0-0.013,0.004l-0.028,0.004
			c-1.526,0.369-3.104,0.748-4.879,0.367c-2.306-0.496-4.769-2.225-7.984-5.604c-0.009-0.006-0.017-0.01-0.024-0.01
			c-0.004,0-0.004,0-0.004,0c-0.01,0-0.013,0-0.021,0.004c-0.003,0-0.006,0-0.009,0c-0.01,0.002-0.021,0.002-0.034,0.006
			c-0.015,0.008-0.029,0.008-0.046,0.013l-0.035,0.007c-0.012,0.002-0.022,0.006-0.037,0.008c-0.023,0.002-0.049,0.008-0.072,0.014
			c-0.029,0.002-0.065,0.008-0.103,0.02l-0.038,0.006c-0.021,0.002-0.041,0.006-0.062,0.012c-0.036,0.004-0.073,0.01-0.116,0.019
			c-0.021,0.007-0.038,0.009-0.059,0.013c-0.012,0-0.025,0.004-0.038,0.006c-0.011,0.004-0.02,0.004-0.028,0.006
			c-0.014,0-0.023,0.004-0.041,0.006c-0.011,0.006-0.021,0.006-0.034,0.008c-0.013,0.003-0.024,0.008-0.036,0.01
			c-0.011,0-0.022,0.002-0.03,0.006c-0.028,0.002-0.055,0.006-0.085,0.016c-0.011,0.002-0.025,0.002-0.036,0.006
			c-0.016,0.002-0.028,0.004-0.043,0.009c-0.026,0.002-0.05,0.009-0.074,0.011c-0.036,0.006-0.065,0.012-0.102,0.018
			c-0.063,0.013-0.126,0.025-0.192,0.035c-0.068,0.01-0.139,0.022-0.205,0.037l-0.024,0.006c-0.102,0.019-0.202,0.031-0.311,0.051
			c-0.111,0.021-0.232,0.045-0.358,0.064c-0.076,0.014-0.153,0.026-0.23,0.039c-0.052,0.012-0.105,0.02-0.158,0.028l-0.074,0.015
			c-0.112,0.021-0.225,0.041-0.34,0.062l-0.151,0.023c-0.095,0.018-0.189,0.035-0.287,0.051c-0.15,0.029-0.305,0.055-0.461,0.082
			c-0.091,0.019-0.188,0.037-0.277,0.051c-0.066,0.015-0.134,0.025-0.202,0.035c-0.156,0.027-0.323,0.058-0.488,0.088
			c-0.166,0.027-0.332,0.058-0.502,0.088c-0.168,0.029-0.341,0.062-0.513,0.091c-0.024,0.006-0.056,0.011-0.083,0.015
			c-0.029,0.004-0.055,0.01-0.082,0.016c-0.058,0.013-0.109,0.021-0.169,0.031c-0.057,0.008-0.11,0.019-0.166,0.028
			c-0.058,0.011-0.112,0.019-0.17,0.028c-0.044,0.007-0.09,0.018-0.135,0.023l-0.035,0.002c-0.058,0.019-0.108,0.024-0.17,0.035
			c-0.055,0.012-0.108,0.02-0.166,0.026c-0.052,0.013-0.101,0.021-0.149,0.028l-0.02,0.002c-0.053,0.011-0.107,0.019-0.161,0.027
			h-0.01c-0.052,0.012-0.106,0.021-0.161,0.03l-0.008,0.002c-0.059,0.013-0.112,0.021-0.173,0.028
			c-0.052,0.011-0.104,0.021-0.167,0.029l0,0c-0.233,0.043-0.465,0.082-0.694,0.121l-0.245,0.045
			c-0.166,0.028-0.331,0.06-0.495,0.088c-0.218,0.043-0.434,0.078-0.651,0.115c-0.102,0.02-0.204,0.039-0.306,0.057l-0.051,0.009
			c-0.084,0.017-0.164,0.03-0.245,0.043l-0.054,0.008c-0.082,0.015-0.158,0.026-0.236,0.045c-0.116,0.021-0.231,0.039-0.348,0.06
			l-0.074,0.015c-0.137,0.022-0.271,0.052-0.396,0.071c-0.083,0.015-0.167,0.029-0.247,0.043l-0.129,0.021
			c-0.047,0.01-0.097,0.018-0.143,0.026c-0.068,0.012-0.138,0.022-0.201,0.034l-0.09,0.015c-0.184,0.035-0.355,0.063-0.508,0.09
			c-0.176,0.031-0.324,0.058-0.46,0.082c-0.04,0.011-0.081,0.019-0.118,0.021l-0.109,0.021c-0.03,0.007-0.057,0.009-0.086,0.015
			c-0.041,0.008-0.073,0.015-0.104,0.019c-0.021,0.004-0.037,0.008-0.057,0.01c-0.008,0-0.014,0.005-0.017,0.005
			c-0.006,0-0.011,0-0.017,0.002c-0.01,0-0.016,0.004-0.016,0.004c-0.002,0-0.012,0-0.021,0.002h-0.006
			c-0.003,0-0.003,0.004-0.003,0.004c-0.002,0-0.006-0.004-0.006,0c-0.003,0-0.006,0.002-0.009,0.004c0,0-0.003,0-0.006,0.005
			c-0.005,0.008-0.011,0.017-0.008,0.03l2.922,9.863c0,0.004,0,0.004,0,0.006l0.139,0.469c0.195,0.658,0.396,1.345,0.585,2.021
			c0.271,0.99,0.479,1.812,0.647,2.576c0.208,0.924,0.365,1.782,0.483,2.625c0.127,0.899,0.195,1.701,0.203,2.451
			c0.013,0.766-0.039,1.536-0.146,2.297c-0.124,0.89-0.302,1.534-0.574,2.088c-0.081,0.168-0.173,0.33-0.266,0.487v0.003
			l-0.761,1.396c-0.004,0.004,0,0.006,0,0.01c-0.004,0.004-0.004,0.006-0.004,0.011l-0.016,0.021
			c-0.091,0.133-0.184,0.271-0.255,0.414c-0.052,0.102-0.092,0.198-0.123,0.289c-0.003,0.002-0.003,0.002-0.006,0.006
			c-0.003,0.006-0.009,0.014-0.013,0.021l-0.006,0.012c-0.002,0.009-0.002,0.021,0,0.029c-0.002,0.017-0.008,0.028-0.016,0.047
			c-0.011,0.037-0.021,0.071-0.032,0.104c-0.004,0.006-0.007,0.017-0.01,0.021s-0.005,0.015-0.008,0.021
			c-0.032,0.086-0.052,0.181-0.062,0.287c-0.031,0.049-0.078,0.127-0.133,0.207c-0.089,0.129-0.206,0.286-0.359,0.475
			c-0.104,0.136-0.267,0.332-0.444,0.541c-0.188,0.224-0.382,0.439-0.565,0.646c-0.334,0.371-0.597,0.654-0.853,0.919
			c-0.358,0.375-0.758,0.776-1.192,1.19c-0.417,0.399-0.854,0.805-1.274,1.188l-0.266,0.243c-0.004,0.005-0.007,0.007-0.01,0.009
			c-0.006,0.006-0.009,0.008-0.012,0.012l0,0c0,0-0.003,0-0.005,0.003l-54.965,50.538l-53.813,49.474l-0.037,0.033l-0.018,0.021
			l-1.093,1c0,0.004,0,0.006-0.002,0.006c-0.511,0.476-1.039,0.963-1.53,1.472c-0.396,0.409-0.796,0.864-1.23,1.395
			c-0.27,0.326-0.468,0.582-0.641,0.826c-0.003,0.006-0.006,0.009-0.011,0.015l0,0c-0.004,0.006-0.011,0.013-0.017,0.021
			c-0.163,0.218-0.323,0.44-0.478,0.662c-0.365,0.526-0.7,1.088-1.025,1.627l-0.083,0.135c0,0.002-0.003,0.002-0.006,0.005
			c0,0.004,0,0.006-0.003,0.01v0.002c-0.014,0.024-0.026,0.048-0.04,0.074c-0.003,0,0,0-0.003,0l0,0
			c-0.044,0.086-0.09,0.168-0.132,0.248c-0.032,0.062-0.062,0.118-0.091,0.174c-0.047,0.092-0.082,0.164-0.117,0.248
			c-0.051,0.106-0.105,0.231-0.163,0.36l-0.061,0.142c0,0.004,0,0.006,0,0.006l-0.104,0.248c-0.003,0-0.003,0.002-0.006,0.002
			l-0.011,0.033c-0.008,0.013-0.011,0.022-0.017,0.032v0.004c-0.042,0.104-0.083,0.209-0.13,0.318
			c-0.04,0.098-0.076,0.194-0.117,0.297c0,0,0,0.002,0,0.006l-0.062,0.15c-0.021,0.051-0.04,0.104-0.062,0.157
			c-0.018,0.048-0.038,0.099-0.058,0.147c-0.022,0.051-0.044,0.103-0.063,0.152l-0.62,1.562c-0.022,0.054-0.044,0.107-0.062,0.158
			c-0.013,0.021-0.023,0.053-0.032,0.078c-0.012,0.023-0.021,0.053-0.031,0.08c-0.025,0.061-0.049,0.123-0.072,0.18
			c-0.018,0.043-0.032,0.092-0.053,0.133c-0.02,0.054-0.042,0.104-0.062,0.154c-0.021,0.053-0.039,0.104-0.062,0.158l-0.054,0.143
			c-0.021,0.054-0.04,0.107-0.063,0.156c-0.004,0.012-0.009,0.021-0.012,0.035c-0.003,0.008-0.009,0.016-0.015,0.028
			c0,0.013-0.005,0.021-0.008,0.03c-0.003,0.009-0.009,0.021-0.011,0.031c0,0,0,0,0,0.004c0,0,0,0,0,0.002
			c-0.015,0.021-0.02,0.039-0.021,0.051c0,0.002,0,0.002-0.003,0.007c-0.003,0.011-0.009,0.021-0.012,0.03s-0.009,0.02-0.012,0.029
			c-0.003,0.004,0,0.01,0,0.012c-0.003,0.013-0.006,0.021-0.009,0.031c-0.003,0.002-0.005,0.002-0.008,0.006
			c-0.076,0.205-0.146,0.412-0.213,0.615c-0.057,0.158-0.102,0.317-0.145,0.471l-0.032,0.105c-0.005,0.012-0.005,0.021-0.005,0.025
			c-0.004,0.002-0.004,0.007-0.004,0.007c-0.003,0.002-0.003,0.005-0.003,0.009c-0.003,0.002-0.003,0.008-0.003,0.01l-0.035,0.125
			h0.004c-0.004,0.002-0.006,0.006-0.006,0.01l0,0c-0.003,0.029-0.012,0.062-0.021,0.088l-0.025,0.104
			c-0.01,0.023-0.016,0.049-0.021,0.076c-0.012,0.041-0.022,0.084-0.033,0.129c-0.016,0.051-0.03,0.104-0.044,0.159l-0.017,0.062
			c-0.021,0.076-0.041,0.156-0.062,0.23l-0.003,0.01c-0.041,0.151-0.082,0.297-0.121,0.444c-0.041,0.146-0.081,0.296-0.12,0.44
			c0,0,0,0,0,0.004c-0.021,0.061-0.044,0.119-0.066,0.179c-0.028,0.082-0.062,0.16-0.089,0.239l-0.248,0.668
			c-0.086,0.234-0.172,0.471-0.26,0.699c-0.244,0.66-0.367,1.383-0.358,2.082c0.01,0.701,0.152,1.42,0.414,2.072
			c0,0,0.003,0,0.003,0.002c0,0.004,0.003,0.012,0.003,0.016c0.004,0.004,0.007,0.013,0.01,0.02c0.003,0,0.003,0.006,0.003,0.01
			c0.003,0.002,0.003,0.006,0.006,0.008l0.071,0.17c0.061,0.14,0.118,0.254,0.179,0.363c0.028,0.053,0.061,0.106,0.088,0.16
			l0.053,0.086c0.837,1.393,2.228,2.371,3.812,2.692c0.003,0,0.003,0,0.006,0l0,0l0.189,0.022c0.398,0.049,0.812,0.104,1.223,0.14
			c0.021,0.004,0.033,0.004,0.05,0.004c0.014,0.002,0.024,0.002,0.029,0.002l0.062,0.009c0.265,0.03,0.537,0.049,0.8,0.065
			c0.133,0.008,0.266,0.016,0.399,0.026c0.336,0.022,0.678,0.06,1.01,0.09h0.014c0.337,0.031,0.673,0.063,1.01,0.101l0.046,0.006
			c0.356,0.037,0.714,0.08,1.069,0.125c0.318,0.039,0.638,0.078,0.96,0.123l0.124,0.017c0.361,0.049,0.716,0.096,1.08,0.147
			c0.911,0.131,1.883,0.285,2.972,0.466c0.902,0.146,1.873,0.318,2.956,0.516c0.525,0.1,1.081,0.207,1.751,0.332
			c0.604,0.115,1.189,0.229,1.747,0.346c0.57,0.109,1.148,0.23,1.78,0.359c0.605,0.123,1.215,0.25,1.812,0.379
			c0.716,0.147,1.432,0.305,2.146,0.457c0.379,0.084,0.76,0.162,1.139,0.246c0.488,0.106,0.976,0.211,1.462,0.321
			c0.003,0,0.003,0,0.008,0l1.086,0.233c0.004,0,0.004,0.005,0.006,0.005c0.016,0.002,0.025,0.004,0.039,0.008
			c0.014,0.002,0.023,0.002,0.038,0.009l0.171,0.028c0.129,0.024,0.261,0.049,0.401,0.072c0.236,0.034,0.495,0.069,0.722,0.104
			c0.077,0.009,0.157,0.021,0.239,0.031c0.168,0.021,0.344,0.041,0.517,0.065c0.207,0.035,0.416,0.063,0.627,0.097l0.142,0.021
			l0.343,0.065c0.115,0.021,0.228,0.047,0.335,0.074c0.003,0,0.003,0,0.003,0h0.003c0,0,0.007,0.004,0.011,0.004l0,0
			c0.256,0.063,0.546,0.139,0.812,0.213c0.265,0.076,0.504,0.156,0.742,0.231l0.157,0.054c0.17,0.057,0.332,0.112,0.46,0.149
			l0.047,0.015c0.055,0.014,0.1,0.024,0.141,0.037c0.003,0,0.006,0.002,0.013,0.002c0.018,0.012,0.033,0.018,0.051,0.021
			l0.012,0.004c0.05,0.016,0.081,0.018,0.104,0.018c0.003,0.01,0.012,0.016,0.021,0.018l12.775,2.783
			c1.767,0.383,3.531,0.771,5.297,1.151l1.506,0.33c2.263,0.492,4.518,0.983,6.771,1.479c0.004,0,0.004,0,0.007,0l29.2,6.381
			l0.32,0.072c1.127,0.248,2.257,0.493,3.393,0.743c0.513,0.113,1.025,0.226,1.541,0.341c0.729,0.159,1.464,0.319,2.192,0.481
			c4.706,1.045,10.038,2.221,15.33,3.396c4.574,1.017,9.979,2.215,15.37,3.418c5.138,1.142,10.277,2.286,15.417,3.433
			c0,0,0.003,0,0.006,0c0.015,0,0.028-0.013,0.031-0.025c0.002-0.014-0.006-0.026-0.021-0.032l0.134,0.037
			c0.054,0.014,0.108,0.026,0.164,0.045c0.546,0.147,1.089,0.297,1.635,0.444c0.434,0.121,0.865,0.24,1.3,0.356
			c0.81,0.224,1.753,0.481,2.676,0.742c0.61,0.172,1.226,0.344,1.82,0.517l0.629,0.176c0.228,0.067,0.454,0.129,0.682,0.192
			l0.762,0.218c0.278,0.075,0.554,0.153,0.818,0.229l0.279,0.075c0.271,0.074,0.535,0.148,0.791,0.222
			c0.161,0.043,0.317,0.086,0.475,0.129c0.158,0.045,0.312,0.084,0.46,0.127c0.283,0.078,0.549,0.147,0.799,0.218l0.282,0.073
			c0.132,0.035,0.255,0.067,0.376,0.101c0.138,0.035,0.271,0.069,0.391,0.099h0.003l0.01,0.004h0.003
			c0.003,0,0.003,0.002,0.006,0.002l0.065,0.019c0.037,0.01,0.077,0.021,0.112,0.031l0,0c0.027,0.006,0.056,0.014,0.077,0.018
			c0.022,0.006,0.043,0.012,0.062,0.019c0.009,0,0.021,0.002,0.028,0.007c0.013,0.004,0.021,0.004,0.031,0.01
			c0.025,0.004,0.049,0.01,0.071,0.016c0.021,0.005,0.041,0.011,0.058,0.016c0.013,0.002,0.021,0.006,0.029,0.008
			c0.009,0.008,0.018,0.008,0.025,0.01c0.003,0.002,0.006,0.002,0.012,0.002l0,0c0.032,0.006,0.06,0.015,0.087,0.021
			c0.043,0.012,0.08,0.02,0.109,0.023c0.02,0.004,0.034,0.006,0.045,0.011c0.003,0,0.003,0.002,0.006,0.002
			c0.202,0.048,0.399,0.099,0.602,0.147c0.683,0.168,1.408,0.348,2.288,0.576c0.204,0.053,0.408,0.104,0.612,0.153
			c0.315,0.084,0.636,0.166,0.954,0.248c0.388,0.101,0.779,0.203,1.158,0.308l0.278,0.076c0.185,0.045,0.362,0.094,0.543,0.145
			c0.268,0.068,0.532,0.14,0.793,0.209c0.212,0.058,0.421,0.113,0.628,0.171c0.215,0.055,0.431,0.112,0.646,0.17
			c0.004,0,0.007,0.004,0.01,0.004l0.003-0.004l0.085,0.028c0.003,0,0.006,0,0.01,0c0.005,0,0.008-0.004,0.015-0.006
			c0.004,0.009,0.012,0.015,0.021,0.017l0.012,0.002c0.012,0.004,0.027,0.008,0.062,0.017c0.052,0.015,0.147,0.039,0.279,0.071
			c0.055,0.015,0.115,0.029,0.182,0.045l0.148,0.039c0.055,0.013,0.115,0.024,0.176,0.045c0.049,0.011,0.098,0.022,0.148,0.035
			c0.004,0.006,0.013,0.011,0.021,0.015c0.025,0.006,0.052,0.011,0.077,0.021l0,0c0.036,0.008,0.073,0.021,0.107,0.026l0.021,0.007
			c0.029,0.006,0.058,0.018,0.087,0.023h0.003c0.62,0.16,1.281,0.326,1.963,0.496c0.723,0.175,1.369,0.326,1.978,0.455
			c0.592,0.125,1.292,0.265,1.988,0.356c0.332,0.048,0.672,0.084,1.004,0.104c0.234,0.021,0.472,0.029,0.716,0.029
			c0.1,0,0.2-0.002,0.302-0.002h0.039c0.003,0,0.003,0,0.003,0l0.205-0.012c0.417-0.023,0.836-0.066,1.248-0.127
			c0.414-0.064,0.827-0.154,1.23-0.266c0.433-0.117,0.826-0.246,1.205-0.393c0.386-0.15,0.772-0.326,1.159-0.523l0,0
			c0.048-0.025,0.092-0.053,0.141-0.073l0,0c0.027-0.019,0.06-0.03,0.092-0.05c0.025-0.014,0.056-0.032,0.084-0.051l0.013-0.006
			c0.052-0.029,0.106-0.06,0.164-0.092c0.026-0.02,0.055-0.033,0.083-0.053c0.029-0.014,0.055-0.029,0.084-0.049
			c0.037-0.021,0.07-0.045,0.104-0.062c0.021-0.016,0.041-0.025,0.062-0.037l0,0c0.008-0.004,0.011-0.006,0.016-0.008
			c0-0.004,0,0,0-0.004c0.05-0.031,0.097-0.061,0.142-0.092l0.047-0.029c0.062-0.039,0.121-0.078,0.179-0.117
			c0.115-0.08,0.222-0.152,0.308-0.215c0.025-0.018,0.054-0.035,0.074-0.057l0.041-0.027c0.03-0.021,0.055-0.037,0.076-0.057
			l0.033-0.021c0.011-0.011,0.021-0.021,0.027-0.025c0.012-0.002,0.015-0.008,0.021-0.01c0.226-0.17,0.446-0.351,0.679-0.549
			c0,0,0-0.002,0.004-0.002l0,0c0.047-0.041,0.092-0.078,0.139-0.115l0.046-0.041c0.108-0.094,0.22-0.194,0.317-0.285
			c0-0.002,0.004-0.002,0.008-0.006c0.09-0.08,0.181-0.168,0.271-0.252l0.062-0.06c0.047-0.039,0.088-0.082,0.133-0.127
			c0.123-0.116,0.246-0.237,0.369-0.362c0.162-0.158,0.319-0.318,0.482-0.486v-0.004c0.084-0.084,0.152-0.153,0.216-0.228
			c0.021-0.021,0.046-0.043,0.062-0.062c0.003-0.006,0.009-0.008,0.014-0.014l0.082-0.089c0.017-0.017,0.03-0.032,0.048-0.054
			c0.016-0.016,0.031-0.032,0.049-0.051l0.077-0.084c0.003-0.006,0.011-0.008,0.013-0.014l0.328-0.354
			c0.543-0.59,1.101-1.225,1.573-1.77c0.007-0.007,0.013-0.016,0.021-0.02c0.058-0.064,0.113-0.133,0.173-0.196
			c0.06-0.069,0.116-0.142,0.181-0.209c0.003-0.006,0.01-0.011,0.012-0.017c0.735-0.852,1.521-1.782,2.192-2.586
			c0.731-0.873,1.556-1.854,2.509-3.01c0.782-0.943,1.646-1.986,2.803-3.392c1.104-1.343,2.101-2.56,3.047-3.715
			c0.914-1.117,1.849-2.259,2.798-3.425l0.433-0.524l26.576-32.528l94.575-115.771l0.098-0.118c0.821-1.013,1.67-2.056,2.513-3.069
			c0.536-0.648,1.078-1.297,1.614-1.941l0.608-0.727c0.07-0.084,0.141-0.166,0.209-0.25c0.002-0.002,0.002-0.007,0.002-0.013
			c0.602-0.705,1.224-1.438,1.855-2.16c0.693-0.784,1.342-1.485,1.979-2.142c0.649-0.672,1.251-1.254,1.829-1.771
			c0.462-0.416,0.859-0.753,1.256-1.061c0.215-0.166,0.429-0.321,0.593-0.438c0.218-0.156,0.398-0.279,0.552-0.382
			c0.216-0.14,0.39-0.243,0.531-0.327c0.17-0.1,0.336-0.188,0.541-0.291c0.183-0.089,0.318-0.148,0.447-0.207
			c0.003,0,0.006,0,0.006-0.004l0.918-0.355h0.003l0.111-0.045l0.007-0.004c0.006-0.002,0.006-0.004,0.008-0.008l0.151-0.062
			c0.025-0.01,0.056-0.018,0.082-0.023c0.02-0.011,0.036-0.018,0.057-0.025c0.013-0.002,0.022-0.004,0.037-0.01
			c0.006-0.004,0.011-0.006,0.019-0.008c0.007,0,0.007,0,0.009-0.005c0.004,0,0.007,0,0.01-0.002l0.055-0.022l-0.018,0.024h0.002
			c0.004,0,0.004-0.002,0.007-0.002l-0.003,0.002c-0.004,0-0.004,0-0.004,0c-0.002,0.005-0.002,0.005-0.002,0.005v-0.005
			c-0.028,0.021-0.062,0.05-0.088,0.071c-0.023,0.029-0.045,0.064-0.064,0.095c-0.02,0.032-0.038,0.069-0.046,0.106
			c0,0.006-0.003,0.008-0.003,0.015l0.009-0.013c-0.044,0.146-0.024,0.301,0.062,0.438c0.023,0.029,0.047,0.059,0.076,0.084v0.002
			l0.092,0.086l4.729,5.941l8.889,14.309l0.988,2.262l-0.003,0.006c0.417,0.957,0.834,1.91,1.251,2.863
			c0.423,0.969,0.849,1.938,1.271,2.904c0.41,0.941,0.82,1.885,1.234,2.826c0.386,0.887,0.771,1.771,1.158,2.656
			c0.352,0.806,0.704,1.605,1.057,2.412c0.309,0.705,0.613,1.408,0.922,2.113c0.262,0.596,0.521,1.188,0.781,1.787
			c0.249,0.568,0.499,1.145,0.754,1.725c0.805,1.836,1.604,3.678,2.408,5.512c0.816,1.865,1.63,3.729,2.443,5.593
			c1.466,3.354,2.935,6.706,4.398,10.062c1.466,3.348,2.929,6.697,4.391,10.043c0.128,0.285,0.247,0.566,0.375,0.85l13.803,31.58
			l1.35,4.26l-0.318,0.775v0.004c-0.004,0.002-0.004,0.002-0.006,0.004l-0.008,0.014c-0.084,0.125-0.1,0.287-0.029,0.428
			l0.012,0.021c0,0,0,0.005,0.003,0.007l0.931,1.918c0.015,0.03,0.026,0.057,0.041,0.084c0.013,0.023,0.023,0.047,0.035,0.075
			l0.855,1.761c0.015,0.025,0.023,0.053,0.041,0.078l0.203,0.428l0.031,0.062c-0.003-0.008-0.008-0.02-0.014-0.029
			c0.061,0.096,0.156,0.159,0.266,0.18l0.275,0.264c-0.012-0.006-0.021-0.014-0.031-0.021c-0.027-0.017-0.062-0.033-0.101-0.045
			c-0.021-0.008-0.04-0.016-0.062-0.021c-0.004-0.023-0.037-0.104-0.084-0.176l0.071,0.172c0,0,0,0.002,0.003,0.002
			c-0.003,0-0.003,0-0.005,0c-0.012-0.002-0.022-0.006-0.038-0.008l0.414,0.26l0.105,0.105l0.541,1.105l2.959,6.1
			c0,0.004,0.006,0.006,0.006,0.008c0.502,1.037,1.005,2.067,1.509,3.104c0.085,0.182,0.176,0.359,0.261,0.535l0.564,1.162
			l2.354,5.506l5.858,13.912h0.003c0,0,0.003,0,0.006-0.002c0.003,0,0.011-0.004,0.017-0.006c0.01,0.02,0.021,0.045,0.03,0.065
			l-0.056-0.06c0.163,0.365,0.322,0.729,0.508,1.08c0.182,0.351,0.381,0.687,0.604,1.008c0.229,0.339,0.485,0.654,0.77,0.947
			c0.296,0.303,0.624,0.572,0.979,0.797c0.338,0.213,0.699,0.386,1.09,0.515c0.048,0.019,0.1,0.03,0.146,0.045l0.015,0.007
			c0.097,0.024,0.19,0.051,0.288,0.075c0.083,0.021,0.166,0.033,0.253,0.052c0.041,0.006,0.08,0.014,0.12,0.02
			c0.062,0.009,0.123,0.018,0.186,0.025c0.139,0.021,0.274,0.026,0.396,0.035c0.058,0.002,0.112,0.002,0.158,0.006
			c0.05,0.004,0.089,0.004,0.124,0.004h0.058h0.048h0.017l-0.006-0.004c0.003,0,0.003,0,0.006,0v0.004v-0.004
			c0.037,0.004,0.074,0,0.112-0.004c0.052,0,0.1-0.003,0.146-0.005c0.007,0,0.016,0,0.021,0c0.106-0.01,0.218-0.018,0.33-0.032
			l0.006-0.005c0.253-0.03,0.504-0.079,0.75-0.153h0.003l0.006-0.002c0.247-0.074,0.487-0.16,0.719-0.269l0.01-0.004l-0.004-0.004
			l-0.006-0.019l-0.003-0.005c0.009-0.004,0.016-0.008,0.021-0.016l-0.012,0.041c0.006-0.002,0.01-0.002,0.012-0.004
			c0.041-0.019,0.08-0.041,0.125-0.06c0.043-0.022,0.087-0.044,0.129-0.063c0.043-0.025,0.087-0.049,0.131-0.074
			c0,0,0.003-0.002,0.005-0.002c0.04-0.021,0.08-0.047,0.12-0.067c0.01-0.013,0.015-0.015,0.021-0.017
			c0.011-0.004,0.017-0.008,0.022-0.014c0.025-0.018,0.052-0.031,0.081-0.05c0.042-0.028,0.083-0.058,0.124-0.082
			c0.017-0.01,0.033-0.021,0.052-0.032c0.022-0.017,0.045-0.031,0.071-0.049c0.009-0.009,0.015-0.013,0.023-0.02l0.094-0.064
			c0.039-0.027,0.08-0.061,0.118-0.091c0.007-0.002,0.011-0.009,0.018-0.011c0.067-0.051,0.138-0.105,0.206-0.161
			c0.004-0.005,0.007-0.005,0.01-0.007c0.009-0.012,0.021-0.021,0.028-0.028c0.055-0.041,0.104-0.084,0.157-0.131
			c0.033-0.028,0.065-0.06,0.102-0.089c0.015-0.016,0.029-0.025,0.043-0.043c0.038-0.032,0.072-0.062,0.105-0.1
			c0.034-0.031,0.068-0.064,0.104-0.103c0.033-0.034,0.068-0.065,0.103-0.101c0.032-0.035,0.065-0.067,0.1-0.104h0.003
			c0.161-0.168,0.315-0.342,0.46-0.521c0.224-0.279,0.429-0.57,0.605-0.879c0.127-0.219,0.238-0.443,0.336-0.676
			c0.125-0.289,0.223-0.595,0.291-0.902C583.842,555.953,583.879,555.527,583.862,555.102 M339.649,576.229
			c4.797,0,8.704,3.903,8.704,8.705s-3.907,8.704-8.704,8.704c-4.804,0-8.707-3.902-8.707-8.704S334.846,576.229,339.649,576.229
			 M411.225,479.123L411.225,479.123c0,0,0,0,0,0.002c-0.002,0-0.005,0.008-0.021,0.021c-0.004,0.014-0.014,0.021-0.023,0.036
			l-0.023,0.036c-0.015,0.018-0.024,0.035-0.043,0.055l-0.043,0.062c-0.031,0.035-0.062,0.078-0.096,0.127l-0.068,0.092
			c-0.031,0.043-0.065,0.084-0.099,0.13c-0.026,0.036-0.062,0.073-0.088,0.114c-0.024,0.033-0.054,0.068-0.08,0.104
			c-0.024,0.028-0.05,0.062-0.072,0.096c-0.034,0.045-0.071,0.092-0.108,0.135c-0.062,0.084-0.127,0.162-0.192,0.242
			c-0.051,0.068-0.106,0.139-0.159,0.203l-0.029,0.035c-0.064,0.08-0.129,0.155-0.189,0.227c-0.037,0.045-0.07,0.088-0.105,0.127
			c-0.021,0.029-0.045,0.061-0.067,0.082l-0.05,0.062c-0.037,0.041-0.073,0.084-0.104,0.123l-0.049,0.057
			c-0.029,0.033-0.056,0.068-0.078,0.092c-0.043,0.046-0.078,0.089-0.099,0.113l-0.021,0.021c-0.016,0.019-0.025,0.03-0.039,0.043
			c-0.012,0.015-0.019,0.024-0.019,0.024c-0.004,0-0.004,0-0.004,0c0,0.002,0,0,0,0.002l-5.282,6.574c-0.004,0-0.004,0-0.004,0.004
			l-0.003,0.002c-0.003,0.004-0.003,0.012-0.009,0.016c-0.006,0.012-0.015,0.021-0.023,0.035c-0.011,0.014-0.02,0.023-0.025,0.035
			c-0.01,0.01-0.02,0.021-0.025,0.035c-0.01,0.016-0.02,0.029-0.03,0.043c-0.011,0.016-0.024,0.033-0.035,0.049
			c-0.028,0.037-0.059,0.08-0.084,0.119c-0.021,0.025-0.039,0.053-0.062,0.08c-0.014,0.018-0.028,0.037-0.043,0.057
			c-0.034,0.053-0.072,0.102-0.11,0.154c-0.045,0.057-0.091,0.117-0.14,0.182c0,0,0,0,0,0.002l0,0
			c-0.043,0.062-0.09,0.119-0.139,0.188l-0.053,0.062c-0.076,0.104-0.156,0.209-0.24,0.317c-0.086,0.109-0.173,0.217-0.26,0.326
			l-0.09,0.111c-0.059,0.068-0.114,0.145-0.173,0.211c-0.062,0.075-0.126,0.152-0.188,0.225l-0.119,0.144
			c-0.066,0.075-0.127,0.151-0.188,0.222c-0.056,0.064-0.111,0.127-0.165,0.188l-0.121,0.138c-0.035,0.043-0.066,0.081-0.1,0.114
			c-0.025,0.025-0.051,0.054-0.075,0.082c-0.009,0.01-0.017,0.021-0.027,0.033c-0.009,0.012-0.021,0.023-0.028,0.031
			c-0.037,0.039-0.062,0.072-0.082,0.092s-0.022,0.029-0.025,0.029l0,0c0,0.002,0,0.002,0,0.002l-7.155,8.908
			c-0.004,0-0.004,0.002-0.004,0.006c0,0.002-0.002,0.002-0.006,0.004c0.004-0.002,0.004-0.002,0-0.002
			c-0.003,0.006-0.005,0.012-0.011,0.016c-0.012,0.016-0.028,0.041-0.053,0.072c-0.012,0.014-0.021,0.029-0.037,0.047
			c-0.016,0.02-0.03,0.041-0.053,0.066c-0.027,0.043-0.058,0.082-0.094,0.129l-0.021,0.03c-0.045,0.058-0.094,0.12-0.146,0.188
			l-0.047,0.062c-0.039,0.049-0.08,0.102-0.117,0.146c-0.049,0.061-0.095,0.123-0.145,0.186l-0.041,0.053
			c-0.062,0.082-0.125,0.161-0.191,0.24c-0.029,0.039-0.062,0.082-0.094,0.117c-0.035,0.041-0.066,0.082-0.098,0.121
			c-0.027,0.031-0.051,0.059-0.076,0.09c-0.037,0.045-0.075,0.09-0.114,0.141c-0.034,0.041-0.067,0.086-0.104,0.125
			c-0.024,0.027-0.049,0.057-0.07,0.084c-0.029,0.036-0.062,0.072-0.092,0.104c-0.021,0.029-0.041,0.057-0.062,0.078l-0.022,0.027
			c-0.037,0.045-0.07,0.086-0.105,0.12c-0.03,0.041-0.061,0.071-0.086,0.101l-0.014,0.012c-0.012,0.02-0.024,0.033-0.033,0.045
			c-0.008,0.012-0.016,0.02-0.02,0.023c-0.017,0.014-0.021,0.02-0.021,0.02c0,0.002,0,0.002,0,0.002h-0.003l-18.646,23.216
			l-23.337,29.041l-3.881,4.834v0.002h-0.002c-0.241,0.302-0.488,0.608-0.744,0.907c-0.062,0.074-0.127,0.15-0.189,0.227
			c-0.006,0.006-0.013,0.014-0.02,0.021c-0.011,0.013-0.02,0.025-0.029,0.037c-0.043,0.045-0.084,0.084-0.129,0.131
			c-0.006,0.007-0.01,0.015-0.01,0.022c-0.127,0.14-0.257,0.279-0.392,0.421c-0.244,0.256-0.478,0.475-0.714,0.685
			c-0.002,0-0.005,0.002-0.005,0.002c-0.038,0.032-0.077,0.069-0.115,0.103c-0.002,0-0.002,0-0.002,0
			c-0.165,0.137-0.335,0.266-0.504,0.387c-0.034,0.024-0.072,0.052-0.105,0.076c-0.026,0.019-0.05,0.032-0.077,0.051
			c0,0.003-0.008,0.007-0.008,0.007c-0.005,0.006-0.014,0.012-0.021,0.014l-0.003,0.006c-0.035,0.021-0.068,0.046-0.106,0.066
			l-0.027,0.018c-0.202,0.13-0.42,0.246-0.642,0.354h-0.003c-0.058,0.027-0.109,0.054-0.162,0.07v0.002c-0.003,0-0.006,0-0.006,0
			c-0.01,0.006-0.021,0.013-0.032,0.015l-0.014,0.006c-0.06,0.024-0.123,0.051-0.188,0.075c-0.004,0-0.006,0.005-0.009,0.005
			c-0.121,0.047-0.241,0.082-0.333,0.108c-0.05,0.019-0.099,0.026-0.145,0.039l-0.033,0.008c-0.05,0.013-0.096,0.022-0.146,0.031
			l-0.017,0.006c-0.068,0.015-0.135,0.024-0.203,0.037c-0.061,0.01-0.122,0.019-0.182,0.022l0,0c0,0-0.004,0-0.004,0.004
			c-0.007,0-0.015,0-0.021,0c-0.009,0.004-0.017,0.004-0.021,0.004c-0.056,0.006-0.109,0.011-0.165,0.015
			c-0.022,0.002-0.046,0.002-0.071,0.002c-0.057,0.006-0.109,0.006-0.167,0.006h-0.014c-0.071,0-0.143-0.004-0.211-0.006l0,0
			c-0.074-0.009-0.146-0.015-0.221-0.022c-0.066-0.008-0.134-0.017-0.196-0.028c-0.039-0.007-0.076-0.015-0.117-0.023
			c-0.118-0.026-0.236-0.062-0.348-0.102c-0.002-0.002-0.007-0.007-0.01-0.009c-0.248-0.088-0.503-0.183-0.734-0.308
			c-0.004-0.002-0.004-0.002-0.006-0.002c-0.004-0.004-0.013-0.008-0.021-0.015c-0.188-0.106-0.362-0.229-0.54-0.377
			c-0.226-0.184-0.441-0.405-0.646-0.655c-0.051-0.062-0.1-0.127-0.146-0.19c-0.094-0.125-0.187-0.261-0.274-0.404
			c-0.029-0.045-0.056-0.096-0.084-0.141l-0.043-0.076c-0.026-0.045-0.05-0.09-0.075-0.144v-0.002
			c-0.178-0.349-0.33-0.722-0.478-1.078c0-0.004,0-0.004-0.003-0.006c-0.081-0.229-0.157-0.476-0.233-0.752
			c-0.097-0.338-0.183-0.701-0.27-1.123c-0.071-0.349-0.143-0.726-0.219-1.149l-1.139-6.265l-0.38-2.082l-1.87-10.327l-0.994-5.464
			c-0.031-0.172,0.054-0.349,0.213-0.424c0.097-0.052,0.147-0.156,0.132-0.263l0,0c0,0-0.003-0.024-0.015-0.069
			c-0.009-0.041-0.021-0.104-0.034-0.192c-0.013-0.054-0.022-0.121-0.034-0.192l-0.021-0.104c-0.02-0.115-0.046-0.248-0.067-0.392
			l0,0l-0.519-2.845l-0.018-0.09c-0.018-0.099-0.03-0.187-0.049-0.269c-0.008-0.055-0.018-0.104-0.025-0.147
			c-0.008-0.047-0.014-0.09-0.021-0.129c-0.008-0.037-0.014-0.065-0.02-0.097c-0.005-0.032-0.011-0.059-0.014-0.078
			c-0.003-0.019-0.006-0.032-0.009-0.045c0-0.004-0.003-0.006-0.005-0.012l0.002-0.002c-0.018-0.104-0.108-0.191-0.217-0.201
			c-0.176-0.021-0.312-0.149-0.348-0.315v-0.002c0-0.002,0-0.002,0-0.002c0-0.005,0-0.005,0-0.005l-1.46-8.053l-0.499-2.75
			c0,0,0,0,0-0.002l0,0l-0.009-0.045c0-0.004,0-0.004,0-0.004l0,0l-1.838-10.109v-0.004c0,0,0-0.002-0.003-0.002
			c-0.028-0.172,0.055-0.344,0.213-0.426c0.095-0.047,0.148-0.152,0.133-0.256l0,0c0-0.005,0-0.02-0.007-0.037
			c-0.003-0.023-0.009-0.061-0.021-0.107c-0.012-0.08-0.033-0.203-0.062-0.352l-0.005-0.029l-0.6-3.285l-0.062-0.364
			c-0.009-0.041-0.015-0.078-0.021-0.115c-0.01-0.032-0.015-0.063-0.021-0.09c-0.013-0.062-0.021-0.11-0.025-0.156
			c-0.009-0.043-0.014-0.075-0.017-0.096c-0.003-0.021-0.008-0.037-0.008-0.037s-0.004,0-0.004-0.002
			c-0.02-0.104-0.104-0.187-0.214-0.192l0,0c-0.173-0.021-0.312-0.152-0.346-0.326l-1.412-7.765c0,0,0,0,0-0.004c0,0,0,0,0-0.002
			c-0.03-0.181-0.065-0.362-0.1-0.543c-0.032-0.183-0.068-0.366-0.109-0.563c-0.077-0.394-0.161-0.783-0.25-1.151
			c-0.092-0.392-0.192-0.774-0.293-1.144c-0.046-0.168-0.101-0.361-0.159-0.553c-0.024-0.091-0.052-0.179-0.077-0.27
			c-0.023-0.088-0.052-0.174-0.077-0.264c0,0,0,0,0-0.004V488.2l-2.177-7.342v-0.002l-12.436-41.975l-3.896-13.153
			c0-0.005-0.003-0.005-0.003-0.005c0-0.002,0.003-0.002,0-0.006l-0.031-0.105c-0.086-0.295-0.17-0.576-0.241-0.859
			c-0.086-0.346-0.149-0.647-0.188-0.934c-0.041-0.307-0.055-0.602-0.041-0.871c0.017-0.285,0.062-0.562,0.14-0.82
			c0.076-0.27,0.184-0.521,0.323-0.772c0.136-0.245,0.302-0.489,0.503-0.745c0.174-0.221,0.387-0.457,0.642-0.725
			c0.235-0.248,0.489-0.492,0.725-0.721c0.485-0.473,1.062-1.029,1.654-1.572c0.604-0.553,1.153-1.037,1.688-1.479
			c0.62-0.504,1.193-0.943,1.753-1.33c0.599-0.418,1.218-0.806,1.841-1.156c0.625-0.348,1.28-0.668,1.942-0.957
			c0.645-0.279,1.334-0.539,2.05-0.774c0.626-0.212,1.308-0.409,2.145-0.632c0.771-0.198,1.547-0.385,2.205-0.539l10.892-2.584
			l138.291-32.764l9.872-2.342c0.003,0,0.003-0.004,0.003-0.004c0.003,0,0.003,0,0.005,0c0.52-0.123,1.053-0.248,1.585-0.345
			c0.561-0.106,1.025-0.157,1.466-0.171c0.478-0.008,0.889,0.031,1.257,0.127c0.377,0.1,0.728,0.264,1.019,0.469
			c0.302,0.215,0.577,0.496,0.818,0.842c0.221,0.301,0.408,0.648,0.617,1.127c0.183,0.414,0.337,0.844,0.488,1.258l0.02,0.045
			l0.172,0.479c0.169,0.463,0.343,0.941,0.491,1.426c0.151,0.5,0.253,0.955,0.309,1.389c0.058,0.463,0.061,0.918,0.006,1.355
			c-0.056,0.432-0.167,0.864-0.334,1.295c-0.16,0.41-0.379,0.848-0.676,1.334c-0.262,0.426-0.564,0.867-0.959,1.387
			c-0.368,0.488-0.757,0.972-1.132,1.438l-20.624,25.674L411.225,479.123z M171.946,538.555c0.242-0.287,0.526-0.605,0.893-0.953
			c0.16-0.152,0.32-0.303,0.481-0.447c0.013-0.01,0.021-0.02,0.031-0.029c0.009-0.008,0.021-0.016,0.032-0.021
			c0.058-0.059,0.117-0.113,0.179-0.166l0.005-0.006l0.247-0.225l35.167-32.016l17.483-15.91l53.349-48.564l3.321-3.021l0.02-0.021
			c0.352-0.326,0.71-0.662,1.078-0.959l0.08-0.064c0.06-0.046,0.123-0.098,0.185-0.146c0.014-0.012,0.018-0.029,0.006-0.043h-0.004
			l0.143-0.109c0.006,0.01,0.011,0.012,0.02,0.012c0.006,0,0.015,0,0.021-0.006c0.222-0.178,0.516-0.406,0.798-0.611
			c0.189-0.148,0.379-0.281,0.561-0.414c0.065-0.045,0.129-0.092,0.191-0.137l0,0c0.002,0,0.005-0.005,0.008-0.007
			c0.076-0.048,0.15-0.099,0.224-0.146c0.148-0.1,0.29-0.195,0.422-0.277c0.08-0.051,0.161-0.092,0.229-0.135l0.03-0.02
			c0.214-0.119,0.332-0.162,0.447-0.207l0.017-0.012c0.01-0.002,0.014-0.008,0.019-0.012l0.016-0.004c0-0.002,0-0.002,0.003-0.002
			c0,0,0,0,0.003,0l0.04-0.019c0.396-0.063,0.726-0.103,1.026-0.12c0.42-0.031,0.796-0.021,1.148,0.025
			c0.356,0.052,0.691,0.146,0.994,0.277c0.29,0.133,0.56,0.303,0.788,0.5s0.426,0.428,0.589,0.682
			c0.139,0.203,0.254,0.429,0.368,0.701c0,0.008,0.003,0.014,0.006,0.021c0.003,0.002,0.003,0.008,0.006,0.018
			c0.089,0.228,0.163,0.469,0.236,0.705l0.008,0.029l1.836,6.197l12.435,41.977l6.817,23.014l0.229,0.783
			c0.204,0.688,0.409,1.379,0.611,2.074c0.306,1.039,0.582,1.994,0.849,2.92c0.3,1.041,0.581,2.049,0.866,3.086
			c0.315,1.164,0.605,2.248,0.879,3.317c0.167,0.625,0.296,1.149,0.463,1.825c0.507,2.041,0.938,3.921,1.325,5.746
			c0.219,1.054,0.405,1.988,0.568,2.857c0.069,0.355,0.149,0.773,0.228,1.211c0.072,0.393,0.15,0.83,0.234,1.336
			c0.1,0.57,0.18,1.051,0.252,1.521c0.095,0.578,0.182,1.151,0.259,1.709c0.187,1.285,0.351,2.576,0.487,3.836
			c0.068,0.625,0.136,1.287,0.201,2.022c0.059,0.658,0.112,1.338,0.161,2.021v0.017c0,0.002,0.003,0.006,0.003,0.008h-0.003
			c0.003,0.033,0.006,0.07,0.006,0.104l0.023,0.402c0,0.002,0,0.006,0.003,0.008c0.034,0.604,0.07,1.222,0.097,1.828v0.006
			c0.003,0.076,0.009,0.156,0.013,0.238c0.004,0.077,0.007,0.159,0.01,0.243c0.014,0.298,0.021,0.603,0.031,0.897v0.024
			c0,0.021,0,0.043,0,0.063c0.002,0.021,0.002,0.039,0.002,0.062c0.009,0.302,0.015,0.599,0.021,0.896
			c0,0.101,0.003,0.201,0.003,0.298v0.01c0.003,0.218,0.005,0.435,0.005,0.646c0.006,0.621,0.003,1.16-0.002,1.647
			c-0.003,0.433-0.013,0.862-0.021,1.278c-0.008,0.371-0.021,0.75-0.03,1.095c0,0.002,0,0.004,0,0.004l-0.121,2.992v0.006
			c0,0.013-0.003,0.024-0.003,0.039c0,0.017,0,0.028,0,0.039l-0.009,0.127c-0.002,0.006-0.007,0.012-0.009,0.021l-0.037,0.903
			c0,0.025,0,0.056-0.003,0.084v0.006c-0.003,0.011-0.003,0.019-0.003,0.021l0,0c-0.135,2.581-0.267,5.159-0.396,7.717l-0.083,1.562
			l-0.165,2.172c0,0.009,0.003,0.013,0.006,0.019c-0.003,0.017-0.006,0.033-0.009,0.049c0,0-0.002,0.005-0.002,0.007l-0.326,1.487
			c0,0.006,0,0.006,0,0.006l-0.511,1.084c-0.123,0.177-0.255,0.363-0.405,0.541c-0.159,0.189-0.346,0.373-0.567,0.56
			c-0.25,0.205-0.502,0.382-0.758,0.524c-0.299,0.168-0.619,0.302-0.93,0.431l-0.03,0.011c-0.012,0.006-0.018,0.02-0.018,0.034
			c-0.296,0.086-0.624,0.154-1.017,0.214c-0.434,0.063-0.867,0.102-1.289,0.106c-0.408,0.008-0.825-0.011-1.228-0.027l-0.126-0.004
			v0.002l-0.188-0.024c-0.982-0.108-2.004-0.226-2.998-0.385c-0.241-0.037-0.482-0.08-0.726-0.123c0-0.019-0.008-0.031-0.024-0.033
			l-0.152-0.029c-0.006-0.004-0.009-0.01-0.015-0.014l-0.091-0.017c-0.643-0.129-1.28-0.26-1.923-0.387
			c-0.573-0.115-1.146-0.229-1.721-0.345c-0.46-0.096-0.845-0.172-1.247-0.25c-0.346-0.065-0.689-0.137-1.038-0.211
			c-0.175-0.033-0.353-0.069-0.531-0.104c-0.179-0.037-0.354-0.069-0.531-0.104c-0.32-0.07-0.646-0.133-0.964-0.197l-0.123-0.021
			c-0.637-0.127-1.271-0.255-1.908-0.382c-0.637-0.125-1.271-0.252-1.909-0.381c-0.041-0.011-0.08-0.019-0.12-0.024
			c-0.041-0.008-0.077-0.019-0.118-0.022c-0.308-0.062-0.612-0.125-0.92-0.19c-0.293-0.062-0.586-0.123-0.883-0.183
			c-0.863-0.181-1.725-0.354-2.584-0.533c-0.71-0.144-1.42-0.288-2.128-0.433c-0.482-0.102-0.968-0.198-1.451-0.299l-0.238-0.047
			c-0.533-0.11-1.065-0.219-1.604-0.328l-0.299-0.06c-0.439-0.092-0.883-0.187-1.328-0.274c-0.146-0.03-0.298-0.06-0.449-0.09
			l-0.079-0.015c-0.003,0-0.006-0.004-0.009-0.004c-0.368-0.078-0.741-0.153-1.109-0.226c-1.455-0.306-2.932-0.604-4.359-0.897
			L279.803,568c-4.005-0.819-7.652-1.559-11.145-2.262c-3.477-0.705-7.118-1.438-11.131-2.244l-9.445-1.883
			c-0.667-0.134-1.334-0.267-2.004-0.398c-1.173-0.23-2.346-0.469-3.521-0.705c-1.695-0.334-3.396-0.67-5.1-1.01l-2.645-0.524
			c-0.828-0.168-1.655-0.332-2.486-0.494c-0.653-0.136-1.307-0.265-1.958-0.394l-2.27-0.451c-0.269-0.055-0.54-0.104-0.81-0.161
			c-0.271-0.052-0.541-0.104-0.812-0.157c-0.215-0.044-0.431-0.087-0.643-0.128c-0.216-0.045-0.434-0.088-0.646-0.129
			c-0.269-0.056-0.537-0.106-0.807-0.159l-0.588-0.119c-0.219-0.041-0.432-0.084-0.646-0.129c-0.188-0.035-0.377-0.072-0.566-0.111
			c-0.151-0.03-0.305-0.06-0.456-0.09c-0.371-0.072-0.745-0.147-1.119-0.224l-2.062-0.408c-0.686-0.139-1.371-0.271-2.06-0.403
			l-6.603-1.312c-1.336-0.267-2.681-0.528-4.021-0.795c-0.815-0.162-1.635-0.321-2.454-0.485c-0.692-0.14-1.386-0.272-2.078-0.41
			c-0.822-0.16-1.645-0.326-2.47-0.483c-0.858-0.175-1.723-0.341-2.584-0.511l-1.627-0.321c-1.303-0.257-2.61-0.515-3.916-0.771
			c-0.006-0.006-0.011-0.008-0.02-0.008c-0.003,0-0.003-0.005-0.007-0.005c-0.002,0-0.002,0.005-0.006,0.005
			c-1.228-0.244-2.501-0.5-3.766-0.811c-1.259-0.312-2.545-0.686-3.82-1.114c-1.201-0.399-2.433-0.858-3.761-1.39
			c-1.169-0.469-2.348-0.967-3.489-1.444l-0.132-0.06l-1.136-0.479h-0.003l-1.59-0.75
			C173.403,544.273,168.988,542.133,171.946,538.555 M320.1,572.293c0,0,0,0,0-0.004c0,0,0.003,0,0.003-0.002l0.315-0.674
			c-0.002,0.01-0.006,0.018-0.009,0.024c-0.099,0.25-0.208,0.478-0.323,0.683c-0.161,0.283-0.349,0.545-0.557,0.771
			c-0.132,0.146-0.271,0.273-0.409,0.388c-0.143,0.112-0.302,0.216-0.452,0.312l-0.074,0.051c-0.178,0.082-0.356,0.166-0.541,0.248
			c0.1-0.049,0.197-0.096,0.294-0.146c0.258-0.148,0.514-0.328,0.764-0.537c0.229-0.187,0.417-0.371,0.578-0.566
			C319.84,572.662,319.977,572.469,320.1,572.293 M286.155,434.604l0.021,0.05c-0.059,0.037-0.115,0.08-0.177,0.121
			c-0.073,0.055-0.15,0.111-0.229,0.168C285.898,434.828,286.024,434.715,286.155,434.604"/>
	</g>
	<g>
		<path fill="#484847" d="M557.562,524.98l-0.275-0.227C557.34,524.865,557.44,524.947,557.562,524.98"/>
	</g>
	<g>
		<path fill="#484847" d="M577.858,561.381c0.037,0,0.072-0.004,0.104-0.004l-0.114,0.004H577.858z"/>
	</g>
	<g>
		<path fill="#484847" d="M522.138,402.666c-0.009,0.002-0.018,0.006-0.026,0.008c-0.026,0.011-0.059,0.02-0.086,0.025
			L522.138,402.666z"/>
	</g>
	<g>
		<path fill="#484847" d="M557.266,524.711c0.014,0.025,0.021,0.039,0.021,0.043l-0.047-0.096c0,0,0,0,0.002,0.002
			C557.25,524.68,557.26,524.697,557.266,524.711"/>
	</g>
	<g>
		<path fill="#BBBCBC" d="M426.689,98.913c0,0-14.933-2.762-26.211,8.345c0,0-14.598-0.52-21.564,8.398
			c0,0-18.15-0.639-23.974,8.492c0,0-14.798-0.749-19.575,8.825c0,0-11.973,4.152-14.977,11.41c0,0-4.8,5.897,0.928,3.434
			c0,0,10.223-2.864,14.812-9.733c0,0,11.963,1.617,19.635-10.891c0,0,10.61-0.584,22.814-8.229c0,0,13.547-0.098,21.655-8.067
			c0,0,12.31,2.162,23.681-4.593C435.291,99.553,426.689,98.913,426.689,98.913"/>
	</g>
	<g>
		<path fill="#BBBCBC" d="M343.672,224.91c0,0,49.037,15.188,61.761,1.213c12.719-13.977-10.05-37.537-10.05-37.537L343.672,224.91z
			"/>
	</g>
	<g>
		<path fill="#BBBCBC" d="M435.115,133.248l-15.521-21.155l-6.28,2.08l-6.051-0.665l-6.744,0.556l-5.147,0.202l-32.525,9.521
			l-27.377,13.255c0,0-25.729,15.032-50.244,35.349c0.03,0.059-22.459,19.266-22.459,19.266l-1.688-1.906l-7.265,1.094l-5.127,6.963
			l0.16,4.746l-4.565,1.236l-12.4,16.84l-4.906,20.875l1.371,6.445l1.196,4l2.5,17.146l18.507,10.281l30.802-3.731l25.396-0.449
			l7.485-10.334c2.801-0.889,10.694-3.766,10.694-3.766l6.005-8.537l13.341-6.404l10.527-9.83
			c8.362-4.822,18.512-10.484,18.512-10.484l15.154-3.27l36.923-24.65l10.782-21.197c0,0,2.037-8.223,4.658-13.521l1.051-0.609
			l2.461-2.234L435.115,133.248z"/>
	</g>
	<g>
		<path fill="#BBBCBC" d="M564.17,311.699c0,0,3.017-1.105,4.28-1.625c1.267-0.521,9.485,0.416,9.485,0.416l7.772,1.252
			l-0.707,2.037c0,0,12.59,4.312,13.131,4.666c1.299,0.852,6.879,15.549,6.879,15.549s-0.239,10.74-0.312,11.772
			c-0.064,1.036-2.543,1.866-2.543,1.866l-1.854,3.373c0,0-3.162,0.814-4.067-0.814c-0.897-1.632-4.504-6.479-4.504-6.479
			s-16.547-5.875-19.856-6.875c-3.312-1.008-14.221-11.225-15.3-12.557c-1.084-1.334-2.935-8.498-1.896-10.229
			C555.714,312.326,564.17,311.699,564.17,311.699"/>
	</g>
	<g>
		<path fill="#BBBCBC" d="M478.937,266.08l11.676,3.449l20.969,9.807l40.816,23.736l22.238,7.881
			c8.518,6.27,17.954,8.068,9.758,13.873c-6.984,4.94-16.073,4.326-24.582,1.738c-5.302-1.619-39.1-9.91-39.1-9.91l-44.171-15.062
			c0,0-8.646-2.459-15.375-5.797c-2.709-1.346-3.812-4.229-3.812-4.229s-2.889-4.209-0.812-10.779c1-3.156,2.386-6.861,6.299-9.635
			C473.834,263.357,478.937,266.08,478.937,266.08"/>
	</g>
	<g>
		<path fill="#BBBCBC" d="M485.973,271.994c-4.818-15.896-20.906-35.027-20.906-35.027S457.233,224,451.42,214.869l0.484-0.342
			l1.237-1.767l-1.264-4.102l-2.891-3.15l-1.836-2.237l0.247-2.369l-2.346-2.945l-0.812-1.967l-0.55-7.449
			c0,0-1.149-1.211-2.554-2.65c-1.143-7.407-2.575-15.465-4.86-20.575c-6.433-14.384-19.145-26.711-22.804-29.523
			c-4.523-3.489-17.854-17.125-30.607-14.597c-12.761,2.52-25.565,20.146-25.521,20.073c-3.671,5.932-12.388,29.928,7.909,44.629
			c6.867,4.977,16.39,7.332,22.314,10.774l4.65,5.974l1.341,7.473l1.931,5.896l1.646,2.352c0,0,0.3,1.975,0.263,2.658
			c-0.038,0.686,2.403,4.447,2.403,4.447l1.736-1.222c4.766,8.449,9.932,16.383,11.584,19.062
			c8.607,13.938,27.404,34.176,38.446,42.295c4.006,2.949,5.266,5.373,7.162,6.758c1.618,1.178,3.234,2.354,5.329,2.033
			c2.771-0.439,3.209-1.363,14.433-5.363C478.5,289.031,489.859,284.777,485.973,271.994"/>
	</g>
	<g>
		<path fill="#BBBCBC" d="M454.991,149.004c0,0-1.607,4.599-0.912,4.814c0.723,0.223,10.271,2.733,10.271,2.733l2.636-0.331
			l1.486-3.057l-1.958-2.269L454.991,149.004z"/>
	</g>
	<g>
		<polygon fill="#BBBCBC" points="503.041,101.54 510.569,98.626 511.346,107.169 509.836,116.071 498.254,114.302 		"/>
	</g>
	<g>
		<path fill="#BBBCBC" d="M414.084,112.615l11.271-1.016c0,0,8.988-5.447,11.213-9.145c7.118-11.814,31.95-3.425,35.719-0.685
			c3.773,2.739,15.456,22.036,6.856,36.113c-2.636,4.315,0.118,14.298-6.072,12.461c-3.256-0.971-16.839,1.066-16.839,1.066
			l-10.758,6.893l-25.104,9.349c0,0-24.289-25.79-21.129-37.257C402.398,118.931,414.084,112.615,414.084,112.615"/>
	</g>
	<g>
		<path fill="#BBBCBC" d="M506.437,64.733l1.894-1.688l-6.801-1.924l-4.339-2.678l1.817-1.825l-10.496-3.828l1.742-3.963
			l-8.744,0.401l-8.385,1.391l-3.005-1.347c0,0-4.796-0.28-5.433-0.142c-0.646,0.146,0.252-2.819,0.252-2.819
			s-15.775,4.865-16.314,5.188c-0.535,0.323-10.707,4.007-10.707,4.007l-2.995,1.077l-1.251,4.391l-2.813,4.604l-1.786,4.722
			l-3.562,4.563l-3.289,1.005l0.646,2.285l-1.571,1.435l1.015,8.131l3.745,15.367l1.687,4.528l-0.047,1.67l-0.58,4.214l1.614-1.992
			l1.808,6.486l0.233,3.188c0,0,6.859,5.537,7.941,7.024c0,0,11.539,19.086,14.443,20.469c2.916,1.383,35.184,10.895,37.576,10.269
			c2.789-0.218,6.817-3.237,8.6-5.567c1.473-1.931,1.049-6.421,1.567-8.44c0.144-0.538,0.408-0.858,0.605-1.237
			c0.479-0.928,1.653-1.67,1.618-2.532c0.106-0.485-0.891-1.286-0.891-1.286s1.507-1.176,1.604-1.878
			c0.099-0.699-0.955-4.825-1.043-5.685c-0.1-0.858,1.148-2.481,1.148-2.481l7.166-1.853c0,0,2.628-1.091,2.931-3.823
			c0.091-0.888-6.124-11.083-6.124-11.083s-0.163-3.874-0.373-4.741c-0.206-0.871,1.608-2.611,2.318-4.251
			c0.627-1.468-0.71-23.35-1.001-28.107l1.087-0.238l-1.35-2.469l3.281,1.117l-2.23-3.396l1.905-1.688L506.437,64.733z"/>
	</g>
	<g>
		<path fill="#BBBCBC" d="M467.815,95.57c0,0,42.118-1.242,42.622-1.262c0.806-0.009,1.213-0.388,1.405-1
			c0.923-2.883,3.516-11.433,3.249-15.13c-0.347-4.698-3.885-17.072-11.39-24.851c-7.546-7.818-20.329-12.955-34.688-14.806
			c-6.553-0.846-19.224,0.845-30.521,1.832c-13.475,1.175-25.211,1.777-25.211,1.777l-1.541,8.28l0.662,6.696l-4.173,1.502
			l1.142,9.831l-3.241,6.459l7.774,17.668c0,0,4.414,5.803,5.379,6.402C420.26,99.57,467.815,95.57,467.815,95.57"/>
	</g>
	<g>
		<path fill="#BBBCBC" d="M314.197,250.607l-29.606-23.092l-33.441-7.132l-11.398,10.746c0,0-9.916,6.49-11.211,8.877
			c-4.671,8.601-7.69,16.554-8.321,20.652c-1.97,11.32-3.306,29.223,1.68,39.379c8.978,18.289,20.538,33.236,32.685,36.24
			c15.879,3.928,32.444-14.177,38.599-19.1c0.018-0.016,0.018-0.039,0.028-0.059l0.125,0.024l9.027-2.729l6.479-7.42l7.495-13.699
			l1.882-17.504l4.09-7.555L314.197,250.607z"/>
	</g>
	<g>
		<path fill="#BBBCBC" d="M313.246,611.705c3.107-0.104,7.67-0.17,9.433-0.566c5.427-1.223,5.532-3.984,6.894-9.264
			c1.133-4.4,1.259-23.348,4.751-36.053c0,0,4.698-18.396,8.063-33.375c3.369-14.979,5.332-26.604,5.332-26.604
			c3.567-20.264,3.022-30.865,4.106-39.262c0.447-3.478,4.608-13.887,5.53-19.646c0.233-1.45,1.476-6.878,1.531-8.286
			c0.134-3.211-0.543-7.01-0.716-8.039c-2.049-12.303-11.041-15.086-18.032-16.48c-7.205-1.438-27.979,2.347-24.837,13.469
			c4.584,16.238-6.011,29.916-9.989,35.816c-3.222,4.771-6.254,8.236-7.843,13.996c-1.584,5.764-5.154,21.049-3.631,27.252
			c1.526,6.209,4.202,21.801,4.202,21.801l4.373,24.095l1.604,16.92c0,0,0.032,13.233-0.349,15.151
			c-0.379,1.914-0.123,2.935-4.554,19.724C298.092,606.236,308.929,611.852,313.246,611.705"/>
	</g>
	<g>
		<path fill="#BBBCBC" d="M316.767,584.555c-11.567-0.295-13.844,9.723-16.88,11.215c-3.033,1.49-2.461,1.285-2.461,1.285
			l0.102-0.629c0,0-0.378-0.525-0.713-0.205c-0.299,0.264-1.297,1.992-3.271,3.812c-1.896,1.754-3.488,3.889-3.488,3.889
			s-3.803,8.635-4.252,14.291c-0.397,5.021,7.888,9.164,7.888,9.164l14.771,3.043c0,0,12.944,4.963,16.693,6.092
			c0.516,0.156,42.624,6.283,42.624,6.283l9.096,0.188c0,0,0.987,0.17,0.967-0.373c-0.032-0.734-0.202-0.531-0.032-0.734
			c0.821-0.932,2.047-2.35,2.526-3.457c0.879-2.053,0.543-6.047-1.938-7.654c-1.747-1.139-4.553-2.211-5.47-2.416
			c-1.979-0.441-7.06-1.627-7.06-1.627l-3.675-2.314l-16.872-10.162l-0.698-1.525l-1.34-0.658l-1.136-1.213l-0.201-1.533
			l-1.892-0.697c0,0-1.25-3.594-3.121-7.031c-0.782-0.412-1.705,1.137-1.705,1.137c-1.723,0.061-2.966-4.146-5.975-10.904
			c-1.695-3.811-5.541-5.768-8.095-6.596C319.731,584.75,318.21,584.588,316.767,584.555"/>
	</g>
	<g>
		<path fill="#BBBCBC" d="M355.747,418.389c-1.064-10.275-2.133-20.6-2.83-25.547c-0.7-4.953-8.669-27.506-17.142-47.625
			l1.345-1.357l-2.877-3.967l-0.76-5.408l-2.189-2.369l-3.693-4.477c-3.165-6.072-6.566-15.109-10.259-20.943
			c-14.513-22.914-16.158-23.023-21.132-27.179c-15.764-13.174-29.841-14.063-45.797-9.977
			c-13.644,3.496-17.571,11.467-19.57,13.855c-2.655,3.176-13.441,14.776,3.562,44.317c3.448,5.953,11.736,26.238,17.445,34.047
			l-0.077,0.968l1.503,5.388l2.443,3.235l0.851,2.558l2.062,2.08l0.543-0.779c7.349,10.197,21.167,29.391,26.575,36.853
			c7.522,10.386,8.109,11.815,15.738,19.505c6.134,6.186,16.204,13.006,19.86,16.838c8.098,8.486,19.892,5.948,25.09,3.482
			c3.844-1.814,6.165-3.875,7.105-4.799c3.814-3.746,6.035-9.17,4.611-17.246C357.51,426.178,356.027,421.064,355.747,418.389"/>
	</g>
	<g>
		<polygon fill="#009FAD" points="612.43,279.994 251.039,279.994 482.579,84.631 484.327,86.701 258.448,277.285 612.43,277.285 		
			"/>
	</g>
	<g>
		<path fill="#ED7119" d="M400.731,183.424c-8.25,0-16.04-3.619-21.371-9.93l2.069-1.746c4.812,5.697,11.852,8.967,19.302,8.967
			c6.601,0,12.843-2.526,17.583-7.123l1.885,1.945C414.951,180.623,408.039,183.424,400.731,183.424z"/>
	</g>
	<g>
		<path fill="#009FAD" d="M301.272,279.156l-2.478-1.096c2.312-5.228,2.203-11.168-0.295-16.304
			c-2.216-4.545-6.052-7.996-10.802-9.717l0.924-2.547c5.413,1.963,9.787,5.896,12.312,11.078
			C303.784,266.426,303.907,273.199,301.272,279.156z"/>
	</g>
	<g>
		<polygon fill="#ED7119" points="581.963,344.318 400.641,157.311 183.717,340.338 181.972,338.268 400.826,153.611 
			583.909,342.434 		"/>
	</g>
</g>
</svg>
