<?xml version="1.0" encoding="utf-8"?>
<!-- Generator: Adobe Illustrator 18.0.0, SVG Export Plug-In . SVG Version: 6.00 Build 0)  -->
<!DOCTYPE svg PUBLIC "-//W3C//DTD SVG 1.1//EN" "http://www.w3.org/Graphics/SVG/1.1/DTD/svg11.dtd">
<svg version="1.1" id="Слой_2" xmlns="http://www.w3.org/2000/svg" xmlns:xlink="http://www.w3.org/1999/xlink" x="0px" y="0px"
	 viewBox="88 0 1413 1200" enable-background="new 88 0 1413 1200" xml:space="preserve">
<path fill="#000000"    d="M1488.5,1105.3c-13.8-14.7-27.4-24.6-30.1-29.4
	c-2.7-4.8-4.4-9.2-10.3-16.2c-5.9-7.2-45.6-63.4-53.9-78.9c-8.3-15.5-28.1-60.6-49.1-82.4c-21-21.6-48.8-37.1-60.3-44.2
	c-11.4-7.1-18.2-15.1-21-20.2c-2.8-5.1-4.8-53.1-4.8-53.1s7.2-3.1,8.3-8.8c1.1-5.5,6.8-90.8,9.5-106.2c2.7-15.4,4.4-26.5,5.1-51.5
	c0.8-25-2.4-64.7-11.4-79.6c-9.2-15.1-18.2-28.5-20.2-33.3c-2-4.8-2.4-14.7-2.4-14.7s11.4-13.8,8.8-25c-2.7-11.2-10.7-25-10.7-25
	s2-32.9,2.8-56.6c0.8-23.7,6.8-48.3,6.4-61.4c-0.4-13.1,9.2-35.3,8.3-55.5s-5.1-44.3-13.1-65.4c-7.9-21-17.1-28.5-24.1-38.4
	c-7.2-9.9-26.1-19.8-37.7-21.7c-11.4-2-21,1.6-25.7-2c-4.7-3.5-15-28.5-17.9-36c-3.1-7.5,0-22.4,0-30.5c0-12.3-3.1-42.1-35.9-59.4
	c-32.9-17.5-76.5,3.5-86,9.2c-8.2,4.8-28.5,28.9-30.9,40.8c-2.4,11.9-4.4,21.5-4.4,21.5s-13.8-11.9-29.8-10.7
	c-15.8,1.1-53.5,9.9-59,22.2c-5.5,12.3-5.1,23.4,0.4,32.5c5.5,9.2,8.3,24.1,9.2,34.4c0.6,8.2,4.7,21.7,7.6,28.7
	c-8,4.4-14.4,7.3-16.8,7.8c-9.5,1.6-95.2,32.8-108.8,39.7c-13.7,6.9-39.7,24.3-57,26.4c-17.5,2.1-34.9,3.1-43.3,7.3
	S664.6,287,664.6,287s-30.6-3.1-58.2,2.1c-27.5,5.2-57,29.6-57,29.6s-10-3.7-22.7-9.5c-12.7-5.8-40.7-8.5-51.2-10.6
	s-59.7-19.5-66.1-23.7c-6.4-4.2-22.2-18.5-40.7-33.9c-18.5-15.4-37.6-21.6-50.7-21.2s-30.6,16.4-32.8,16.4s-21.6,0-21.6,0
	s0-2.1-1.6-5.8s-7.9-6.9-5.8-9.5c2.1-2.7,1-8.5,0-11.2c-1-2.7-5.2-8.5-5.2-8.5s4.2-3.7,3.7-8.5s-10-14.8-10-16.9s3.7-10,3.7-10
	s-10.9-29.4-19.8-44.6c-9-15.4-15.8-12.7-40.1-20.6s-52.4,8.5-67.1,25.4s-6.9,49.7-4.8,59.7c2.1,10,12.7,24.3,19.1,35.4
	s19.1,26.4,22.7,35.9c3.7,9.5,3.1,16.4-3.1,27c-6.2,10.6-21.6,25.8-34.3,39.1S99.1,348,96.5,368.2c-2.7,20.2,15.4,38.5,17.5,48.1
	c2.1,9.5,3.7,23.7,5.8,39.1s21.2,35.9,24.3,42.2c3.1,6.4,15.4,12.1,26.4,17.9c11,5.8,19.5,1,24.8-3.1c5.2-4.2,7.3-10.6,18.5-20
	c11.2-9.5,21.6-24.8,21.6-24.8s23.3,9.5,28,12.1c4.8,2.7,32.2,11.6,38.5,17.5c6.4,5.8,29.1,23.7,32.8,26.4s14.3,2.1,14.3,2.1
	s5.2,16.9,10.6,19.1c5.2,2.1,8.5,3.1,9.5,9c1,5.9,1.6,19.1,5.8,27.5c4.2,8.5,12.1,33.3,12.1,33.3s0,4.8,0,10.6
	c0,5.8,12.1,63.4,23.2,88.2c11,24.8,31.2,47,31.2,47s1,31.8,5.8,46s14.3,30.1,14.3,30.1s1,29.1,1,39.1c0,10,4.8,25.8,10.6,46.4
	c5.8,20.6,20.6,101.5,23.7,117.9c3.1,16.4-2.7,42.8-2.7,42.8s-4.8,6.4-11.6,11.6c-6.9,5.2-23.7,32.2-29.1,37.6
	c-5.2,5.2-5.2,5.2-14.3,7.3c-9,2.1-26.4,10.7-28.5,10.7s2.1,7.2,4.8,9.3c2.7,2.1,16.4,0.6,16.4,0.6s16.9,2.7,30.1,0
	c13.3-2.7,21.6-9.9,28.5-17.9c6.9-8,19.1-6.9,37-12.1c17.9-5.2,29.1-6.4,34.9-17.9c5.8-11.6-3.1-40.7-9-66.1
	c-5.8-25.4-11.2-79.8-8.5-95.6c2.7-15.8,6.4-49.7,1-69.2c-5.4-19.5-23.9-62.4-23.9-62.4s4.4-11.2,4.9-33.3s-3.7-63.4-4.8-81.9
	s4.2-48.1,2.7-67.6c-1.6-19.5-2.7-50.3-2.7-50.3s25.4-16.4,27-21.2c1.6-4.8-4.8-22.7-8.5-33.9c0,0-4.2-17.5-3.1-22.2
	c1-4.8,13.3-12.7,18.5-15.4c5.2-2.7,22.7,0,26.4-2.1s-1-23.3-1-23.3s18.5-15.4,37-25.4c18.5-10,60.7-57.6,65.5-61.3
	c4.8-3.7,24.8-19.1,35.4-25.4c10.6-6.4,32.2-26.4,32.2-26.4s4.8-6.9,43.9-11.6c39.1-4.8,73.4-28.5,91.3-43.9
	c8.8-7.5,19.1-18.6,34.9-29.2c0,1.6,0,3,0,4.2c0,12.7-2.4,33.7,5.1,55.5c7.5,21.7,16.2,33.3,19.1,36s-5.1,12.7,19.1,19.8
	c23.6,6.9,48.7-10.6,62.4-21.7c8.5,6.6,22.6,18.1,28.4,23c8.3,7.2,17.8,16.7,17.8,16.7s-1.6,21,0,34c1.6,13.1,5.1,22.2,4.8,30.1
	c-0.4,7.9-7.2,19.8-6.4,26.5s2.8,23,2.8,23l1.1,5.5c0,0-3.1,1.6-10.7,14.7c-7.5,13.1-17.5,32-17.5,32s-18.2,20.2-33.6,39.2
	s-32.9,53.9-37.3,65.4c-4.4,11.4-12.3,31.3-12.3,31.3l0.8,2c0,0-13.4,36.4-19.8,50.7c-6.4,14.3-17.4,31.3-19.8,38.8
	s-5.1,19.1-2.8,28.1c2.3,9,6.4,17.1,6.4,21.5s0,30.9,0,41.6s-0.8,18.2-0.8,18.2c0,24.1,1.6,92.3,4,117.7c2.4,25.4-1.6,71.3-5.9,84.4
	c-4.4,13.1-14.7,32.5-18.2,36c-3.5,3.5-44,32.5-52,36.4c-7.9,4-24.1,7.9-34.4,11.2c-10.3,3.1-19.1-7.5-26.1,5.5
	c-7.2,13.1,17.5,16.2,32.5,18.6s63.8,5.5,90.4,0c26.5-5.5,64.9,14.3,82.9,0c17.8-14.3,2.4-38.8,0-48s-7.2-18.6-5.5-46.7
	c1.6-28.1,8.3-80,19.8-111.4s18.6-63.4,15.8-91.5c-2.8-28.1-6.8-60.6-7.9-69.3c-1.1-8.8,1.1-19.8,17.1-33.3
	c16-13.6,53.9-42.8,53.9-42.8l20.6,6.4c0,0,12.3,21.7,11.4,27.7c-0.8,5.9,3.1,18.2,6.8,18.6c3.5,0.4,18.6,0,18.6,0
	s7.9,30.1,12.7,39.2s15.4,19.1,16.7,20.2c1.1,1.1,2.8,11.2,35.7,37.7c32.9,26.5,55.9,50,70.6,64.7c14.7,14.7,32,32.9,48.7,48.3
	c16.7,15.4,45.6,46.7,50.7,57c5.1,10.3,6.4,17.1,5.5,20.2c-0.8,3.1-15.8,10.7-24.6,14.3c-8.8,3.5-13.4,7.5-16.7,7.2
	c-3.1-0.4-11.4-2.4-13.4,0.4c-2,2.8-3.5,11.2,5.1,12.7c8.8,1.6,9.2,2,15.4,3.1c6.4,1.1,44.3,0.4,57.9,6.4
	c13.6,5.9,61.8,4.8,68.2,3.1C1490.7,1133.1,1502.3,1120,1488.5,1105.3z M1006.2,237.9c-7.5,1.6-18.2,9.9-18.2,9.9l-7.2-7.9
	c0,0-0.3-9.9-0.3-19.1c4.1-0.8,8.2-1.6,12.6-2.1c27.2-3.8,40-7.6,46.2-11.3c-1,4.8-3.2,10.3-8.5,15.5
	c-12.3,12.3-15.1,14.3-15.1,14.3S1013.7,236.3,1006.2,237.9z"/>
</svg>
