<?xml version="1.0"?><svg width="1200" height="1600" xmlns="http://www.w3.org/2000/svg">
 <title>3 colored pencils</title>
 <metadata id="metadata7">image/svg+xmlPencils23/7/2008Claudio Canavese (CoD)Claudio Canavese (CoD)pencilpencilscolorThree extremely simple pencils.</metadata>
 <g>
  <title>Layer 1</title>
  <g id="svg_2">
   <path fill="#ff00ff" fill-rule="evenodd" stroke-width="1px" d="m541.620361,259.606262l36.704712,0l20.187622,-172.166855l-0.917603,-2.179337l-55.974731,174.346191z" id="path3248"/>
   <rect transform="matrix(29.363796086862894,0,0,34.8692325689966,-489.2815690583923,-171.2997388504674) " fill="#ff00ff" stroke-miterlimit="4" stroke-dashoffset="0" id="rect3250" x="31.35464" y="22.085198" width="3.666667" height="25.178236"/>
   <rect transform="matrix(29.363796086862894,0,0,34.8692325689966,-489.2815690583923,-171.2997388504674) " fill="#ff00ff" stroke-miterlimit="4" stroke-dashoffset="0" id="rect3252" x="35.021306" y="22.085198" width="3.666667" height="25.178236"/>
   <rect transform="matrix(29.363796086862894,0,0,34.8692325689966,-489.2815690583923,-171.2997388504674) " fill="#ff00ff" stroke-miterlimit="4" stroke-dashoffset="0" id="rect3254" x="38.687974" y="22.085198" width="3.666667" height="25.178236"/>
   <path fill="#ffd42a" fill-rule="evenodd" stroke-width="1px" d="m578.325073,259.606262l-40.375183,342.154236l-1.835205,1.089722l111.949402,2.179321l-0.917542,-1.089661l-32.116699,-344.333618l-36.704773,0z" id="path3256"/>
   <path fill="#ff00ff" fill-rule="evenodd" stroke-width="1px" d="m578.325073,259.606262l36.704773,0l-16.517151,-172.166855l-20.187622,172.166855z" id="path3258"/>
   <path fill="#ff00ff" fill-rule="evenodd" stroke-width="1px" d="m615.029846,259.606262l34.869507,0l-51.386658,-172.166855l16.517151,172.166855z" id="path3260"/>
   <path fill="#ffdd55" fill-rule="evenodd" stroke-width="1px" d="m615.029846,259.606262l32.116699,344.333618l0.917542,1.089661l105.526123,1.0896l-103.690857,-346.512878l-34.869507,0z" id="path3262"/>
   <path fill="#ffcc00" fill-rule="evenodd" stroke-width="1px" d="m541.620361,259.606262l-111.031799,342.154236l105.526123,1.089722l1.835205,-1.089722l40.375183,-342.154236l-36.704712,0z" id="path3264"/>
   <path fill="#ffaaff" fill-rule="evenodd" stroke-width="1px" d="m893.985901,259.606262l36.704834,0l20.187561,-172.166855l-0.917664,-2.179337l-55.974731,174.346191z" id="path3547"/>
   <rect transform="matrix(29.363796086862894,0,0,34.8692325689966,-489.2815690583923,-171.2997388504674) " fill="#ffaaff" stroke-miterlimit="4" stroke-dashoffset="0" id="rect3549" x="43.35464" y="22.085198" width="3.666667" height="25.178236"/>
   <rect transform="matrix(29.363796086862894,0,0,34.8692325689966,-489.2815690583923,-171.2997388504674) " fill="#ffaaff" stroke-miterlimit="4" stroke-dashoffset="0" id="rect3551" x="47.021306" y="22.085198" width="3.666667" height="25.178236"/>
   <rect transform="matrix(29.363796086862894,0,0,34.8692325689966,-489.2815690583923,-171.2997388504674) " fill="#ffaaff" stroke-miterlimit="4" stroke-dashoffset="0" id="rect3553" x="50.687974" y="22.085198" width="3.666667" height="25.178236"/>
   <path fill="#ffd42a" fill-rule="evenodd" stroke-width="1px" d="m930.690735,259.606262l-40.375366,342.154236l-1.835144,1.089722l111.949402,2.179321l-0.917664,-1.089661l-32.116577,-344.333618l-36.704651,0z" id="path3555"/>
   <path fill="#ffaaff" fill-rule="evenodd" stroke-width="1px" d="m930.690735,259.606262l36.704651,0l-16.51709,-172.166855l-20.187561,172.166855z" id="path3557"/>
   <path fill="#ffaaff" fill-rule="evenodd" stroke-width="1px" d="m967.395386,259.606262l34.869568,0l-51.386658,-172.166855l16.51709,172.166855z" id="path3559"/>
   <path fill="#ffdd55" fill-rule="evenodd" stroke-width="1px" d="m967.395386,259.606262l32.116577,344.333618l0.917664,1.089661l105.526062,1.0896l-103.690735,-346.512878l-34.869568,0z" id="path3561"/>
   <path fill="#ffcc00" fill-rule="evenodd" stroke-width="1px" d="m893.985901,259.606262l-111.03186,342.154236l105.526184,1.089722l1.835144,-1.089722l40.375366,-342.154236l-36.704834,0z" id="path3563"/>
   <g id="svg_1">
    <path fill="#7f00ff" fill-rule="evenodd" stroke-width="1px" id="path2166" d="m189.254745,259.606262l36.704742,0l20.187622,-172.166855l-0.917572,-2.179337l-55.974792,174.346191z"/>
    <rect transform="matrix(29.363796086862894,0,0,34.8692325689966,-489.2815690583923,-171.2997388504674) " fill="#7f00ff" stroke-miterlimit="4" stroke-dashoffset="0" height="25.178236" width="3.666667" y="22.085198" x="19.35464" id="rect2160"/>
    <rect transform="matrix(29.363796086862894,0,0,34.8692325689966,-489.2815690583923,-171.2997388504674) " fill="#7f00ff" stroke-miterlimit="4" stroke-dashoffset="0" height="25.178236" width="3.666667" y="22.085198" x="23.021307" id="rect2162"/>
    <rect transform="matrix(29.363796086862894,0,0,34.8692325689966,-489.2815690583923,-171.2997388504674) " fill="#7f00ff" stroke-miterlimit="4" stroke-dashoffset="0" height="25.178236" width="3.666667" y="22.085198" x="26.687973" id="rect2164"/>
    <path fill="#ffd42a" fill-rule="evenodd" stroke-width="1px" id="path3162" d="m225.959488,259.606262l-40.375198,342.154236l-1.835236,1.089722l111.949493,2.179321l-0.917603,-1.089661l-32.116669,-344.333618l-36.704788,0z"/>
    <path fill="#7f00ff" fill-rule="evenodd" stroke-width="1px" id="path2179" d="m225.959488,259.606262l36.704788,0l-16.517166,-172.166855l-20.187622,172.166855z"/>
    <path fill="#7f00ff" fill-rule="evenodd" stroke-width="1px" id="path2171" d="m262.664276,259.606262l34.869537,0l-51.386703,-172.166855l16.517166,172.166855z"/>
    <path fill="#ffdd55" fill-rule="evenodd" stroke-width="1px" id="path3165" d="m262.664276,259.606262l32.116669,344.333618l0.917603,1.089661l105.526093,1.0896l-103.690826,-346.512878l-34.869537,0z"/>
    <path fill="#ffcc00" fill-rule="evenodd" stroke-width="1px" id="path3159" d="m189.254745,259.606262l-111.03183,342.154236l105.526138,1.089722l1.835236,-1.089722l40.375198,-342.154236l-36.704742,0z"/>
   </g>
  </g>
 </g>
</svg>